<svg width="56" height="56" viewBox="0 0 56 56" fill="none" xmlns="http://www.w3.org/2000/svg">
<path d="M44.69 51.49C41.48 51.49 39.03 50.52 37.41 48.61C36.03 46.98 35.3 44.67 35.3 41.92C35.3 38.61 36.37 34.78 38.17 31.66C40.06 28.38 42.38 26.49 44.52 26.49C46.69 26.49 49.05 28.41 51 31.75C52.85 34.93 53.96 38.81 53.96 42.14C53.96 44.83 53.24 47.1 51.87 48.69C50.27 50.55 47.86 51.5 44.69 51.5V51.49ZM44.52 27.51C40.77 27.51 36.32 35.32 36.32 41.92C36.32 44.42 36.97 46.5 38.19 47.95C39.61 49.62 41.8 50.47 44.69 50.47C51.86 50.47 52.93 45.25 52.93 42.14C52.93 38.99 51.88 35.3 50.11 32.27C48.38 29.29 46.28 27.52 44.52 27.52V27.51Z" fill="#3D6D4A"/>
<path d="M44.69 51.61C41.44 51.61 38.96 50.63 37.31 48.68C35.91 47.03 35.17 44.69 35.17 41.91C35.17 38.58 36.25 34.72 38.05 31.59C39.96 28.27 42.32 26.36 44.51 26.36C46.72 26.36 49.12 28.3 51.09 31.68C52.95 34.88 54.07 38.79 54.07 42.13C54.07 44.85 53.34 47.14 51.95 48.76C50.33 50.65 47.88 51.61 44.68 51.61H44.69ZM44.52 26.61C42.42 26.61 40.14 28.47 38.28 31.72C36.5 34.82 35.43 38.63 35.43 41.92C35.43 44.64 36.15 46.92 37.51 48.53C39.11 50.41 41.52 51.37 44.69 51.37C47.86 51.37 50.2 50.44 51.77 48.61C53.11 47.04 53.83 44.81 53.83 42.15C53.83 38.85 52.73 34.99 50.89 31.82C48.97 28.52 46.65 26.62 44.52 26.62V26.61ZM44.69 50.59C41.76 50.59 39.54 49.73 38.09 48.02C36.85 46.55 36.19 44.44 36.19 41.91C36.19 35.25 40.7 27.37 44.51 27.37C46.32 27.37 48.45 29.17 50.21 32.19C51.99 35.24 53.05 38.95 53.05 42.13C53.05 45.31 51.96 50.59 44.68 50.59H44.69ZM44.52 27.63C40.82 27.63 36.45 35.37 36.45 41.92C36.45 44.39 37.09 46.45 38.29 47.87C39.68 49.51 41.84 50.35 44.7 50.35C51.76 50.35 52.82 45.21 52.82 42.14C52.82 39.07 51.77 35.34 50.02 32.33C48.31 29.39 46.26 27.64 44.53 27.64L44.52 27.63Z" fill="#3D6D4A"/>
<path d="M43.33 48.62C43.05 48.62 42.82 48.39 42.82 48.11C42.82 47.83 43.05 47.6 43.33 47.6C45.69 47.6 47.45 46.91 48.56 45.54C49.91 43.88 50.3 41.23 49.65 38.09C49.59 37.81 49.77 37.54 50.05 37.49C50.33 37.43 50.6 37.61 50.65 37.89C51.36 41.34 50.9 44.28 49.35 46.19C48.03 47.81 46.01 48.63 43.33 48.63V48.62Z" fill="#3D6D4A"/>
<path d="M43.33 48.75C42.98 48.75 42.7 48.46 42.7 48.11C42.7 47.76 42.98 47.48 43.33 47.48C45.65 47.48 47.38 46.8 48.47 45.46C49.8 43.83 50.18 41.22 49.53 38.12C49.5 37.95 49.53 37.78 49.62 37.64C49.71 37.5 49.86 37.4 50.02 37.37C50.36 37.3 50.7 37.52 50.77 37.86C51.49 41.34 51.02 44.33 49.45 46.26C48.11 47.91 46.05 48.75 43.33 48.75ZM50.15 37.6C50.15 37.6 50.1 37.6 50.07 37.6C49.97 37.62 49.88 37.68 49.83 37.77C49.77 37.86 49.75 37.96 49.77 38.06C50.43 41.24 50.03 43.92 48.65 45.61C47.51 47.01 45.72 47.72 43.32 47.72C43.11 47.72 42.94 47.89 42.94 48.1C42.94 48.31 43.11 48.49 43.32 48.49C45.96 48.49 47.95 47.68 49.25 46.1C50.78 44.23 51.23 41.32 50.52 37.91C50.48 37.73 50.32 37.6 50.14 37.6H50.15Z" fill="#3D6D4A"/>
<path d="M33.48 17.4C33.48 17.3 33.45 17.21 33.42 17.12C33.38 17.03 33.32 16.94 33.25 16.87L27.38 11.18V6.72C27.38 6.1 27.13 5.51 26.69 5.07C26.25 4.63 25.65 4.39 25.03 4.39H10.11C9.48998 4.39 8.89998 4.63 8.45998 5.07C8.01998 5.51 7.76998 6.1 7.76998 6.72V11.02L2.12998 16.87C2.05998 16.94 2.00998 17.02 1.96998 17.11C1.93998 17.19 1.92998 17.28 1.91998 17.37V49.16C1.91998 49.77 2.16998 50.36 2.59998 50.8C3.02998 51.24 3.61998 51.48 4.22998 51.49H31.15C31.77 51.49 32.36 51.24 32.79 50.8C33.23 50.36 33.47 49.77 33.48 49.16V17.4ZM8.89998 12.11H24.63L20.28 16.63H4.51998L8.88998 12.11H8.89998ZM26.5 12.44L30.82 16.64H22.44L26.51 12.44H26.5ZM9.32998 6.72C9.32998 6.29 9.67998 5.94 10.11 5.94H25.03C25.46 5.94 25.81 6.29 25.81 6.72V10.55H9.32998V6.72ZM3.46998 49.16V18.18H19.69V49.93H4.23998C3.81998 49.93 3.47998 49.58 3.46998 49.16ZM31.94 49.16C31.94 49.59 31.58 49.93 31.15 49.93H21.37V18.18H31.91L31.93 49.15L31.94 49.16Z" fill="#3D6D4A"/>
<path d="M15.67 31.43L11.65 26.38C11.5 26.21 11.28 26.12 11.05 26.12C10.82 26.12 10.61 26.22 10.45 26.38L6.42995 31.42C6.20995 31.7 6.20995 32.1 6.42995 32.38L10.45 37.43C10.6 37.62 10.82 37.72 11.06 37.72C11.3 37.72 11.52 37.61 11.67 37.43L15.69 32.39C15.91 32.1 15.9 31.7 15.66 31.43H15.67ZM11.04 35.7L8.01995 31.91L11.04 28.12L14.08 31.91L11.04 35.7Z" fill="#3D6D4A"/>
</svg>
