<svg width="56" height="56" viewBox="0 0 56 56" fill="none" xmlns="http://www.w3.org/2000/svg">
<g clip-path="url(#clip0_14412_373)">
<path d="M22.74 20.68H18.3C16.69 20.68 15.37 19.36 15.37 17.75V8.68C15.37 7.07 16.69 5.75 18.3 5.75H22.74C24.35 5.75 25.67 7.07 25.67 8.68V17.75C25.58 19.45 24.35 20.68 22.74 20.68ZM18.21 7.74C17.64 7.74 17.17 8.21 17.17 8.78V17.85C17.17 18.42 17.64 18.89 18.21 18.89H22.65C23.22 18.89 23.69 18.42 23.69 17.85V8.77C23.69 8.2 23.22 7.73 22.65 7.73H18.21V7.74Z" fill="#3D6D4A"/>
<path d="M33.5099 30.13C32.9399 30.13 32.56 29.75 32.56 29.18V22.09C32.56 20.01 31.8 18.59 30.2 17.84C29.35 17.46 28.5 17.18 27.65 17.18C27.08 17.18 26.7 16.8 26.7 16.23C26.7 15.66 27.08 15.28 27.65 15.28C28.78 15.28 30.0099 15.56 31.0499 16.13C32.6599 16.89 34.5499 18.59 34.5499 22.18V29.27C34.4599 29.74 33.9799 30.12 33.5099 30.12V30.13Z" fill="#3D6D4A"/>
<path d="M20.47 50.25C15.94 50.25 11.59 50.25 8.46999 49.02C4.78999 47.6 2.98999 44.58 2.98999 39.86C2.98999 33.34 6.66999 27.39 12.44 24.37V16.62L9.12999 12.18C8.84999 11.8 8.93999 11.14 9.31999 10.86C9.50999 10.77 9.69999 10.67 9.88999 10.67H25.76C27.27 10.67 28.59 11.9 28.59 13.5V24.46C34.35 27.48 38.04 33.44 38.04 39.95C38.04 44.67 36.24 47.6 32.56 49.11C29.35 50.24 25.1 50.24 20.47 50.24V50.25ZM11.78 12.46L14.24 15.67C14.33 15.86 14.43 16.05 14.43 16.24V24.93C14.43 25.31 14.24 25.59 13.86 25.78C8.46999 28.33 4.97999 33.81 4.97999 39.86C4.97999 43.83 6.29999 46.1 9.22999 47.23C12.06 48.36 16.22 48.36 20.57 48.36C24.92 48.36 29.07 48.36 31.91 47.23C34.84 46.1 36.16 43.83 36.16 39.86C36.16 33.81 32.66 28.33 27.28 25.78C27 25.59 26.71 25.31 26.71 24.93V13.4C26.71 12.93 26.33 12.45 25.77 12.45H11.78V12.46Z" fill="#3D6D4A"/>
<path d="M31.1499 34.85H9.88994C9.31994 34.85 8.93994 34.47 8.93994 33.9C8.93994 33.33 9.31994 32.95 9.88994 32.95H31.1499C31.7199 32.95 32.0999 33.33 32.0999 33.9C32.0999 34.47 31.6299 34.85 31.1499 34.85Z" fill="#3D6D4A"/>
<path d="M27.56 46.75C26.99 46.75 26.61 46.37 26.61 45.8C26.61 45.23 26.99 44.85 27.56 44.85C32.47 44.85 32.47 41.26 32.47 41.07C32.47 40.5 32.85 40.12 33.42 40.12C33.99 40.12 34.37 40.5 34.37 41.07C34.46 41.07 34.37 46.74 27.57 46.74L27.56 46.75Z" fill="#3D6D4A"/>
<path d="M24.06 46.75H23.87C23.81 46.75 23.7467 46.72 23.68 46.66C23.59 46.66 23.59 46.57 23.49 46.57C23.39 46.57 23.4 46.48 23.3 46.48C23.11 46.29 23.02 46.1 23.02 45.82V45.63C23.02 45.57 23.05 45.5067 23.11 45.44C23.11 45.35 23.2 45.35 23.2 45.25L23.48 44.97C23.57 44.97 23.57 44.88 23.67 44.88C23.86 44.79 24.14 44.79 24.43 44.88C24.52 44.88 24.52 44.97 24.62 44.97C24.72 44.97 24.71 45.06 24.81 45.06C24.81 45.06 24.9 45.15 24.9 45.25C24.9 45.35 24.99 45.34 24.99 45.44C24.99 45.54 24.99 45.53 25.08 45.63V45.82C25.08 46.1 24.99 46.29 24.8 46.48C24.8 46.48 24.71 46.57 24.61 46.57C24.51 46.57 24.52 46.66 24.42 46.66C24.32 46.66 24.33 46.66 24.23 46.75C24.14 46.66 24.04 46.75 24.04 46.75H24.06Z" fill="#3D6D4A"/>
<path d="M45.96 31.18C42.05 31.18 38.91 28 38.91 24.13C38.91 23.03 39.17 21.94 39.68 20.95L39.72 20.91L45.97 9.99L52.25 20.95C52.76 21.94 53.02 23.03 53.02 24.13C53.02 28 49.88 31.18 45.97 31.18H45.96ZM40.95 21.61C40.55 22.41 40.37 23.25 40.37 24.13C40.37 27.2 42.85 29.72 45.96 29.72C49.07 29.72 51.55 27.2 51.55 24.13C51.55 23.25 51.37 22.41 50.97 21.61L45.96 12.91L40.95 21.61Z" fill="#3D6D4A"/>
<path d="M45.8101 28.69V27.23C46.9801 27.23 48.0801 26.65 48.7001 25.62L49.9401 26.39C49.0601 27.85 47.4901 28.69 45.8101 28.69Z" fill="#3D6D4A"/>
</g>
<defs>
<clipPath id="clip0_14412_373">
<rect width="56" height="56" fill="white"/>
</clipPath>
</defs>
</svg>
