<svg width="56" height="56" viewBox="0 0 56 56" fill="none" xmlns="http://www.w3.org/2000/svg">
<g clip-path="url(#clip0_14412_1691)">
<path d="M32.46 21.46C32.21 21.21 31.84 21.21 31.59 21.46C25.39 27.28 24.96 40.36 24.96 40.91C24.96 41.28 25.21 41.53 25.58 41.53C25.89 41.53 26.2 41.28 26.2 40.91C26.2 40.79 26.57 27.84 32.46 22.32C32.71 22.13 32.71 21.7 32.46 21.45V21.46Z" fill="#3D6D4A"/>
<path d="M22.27 32.15C23.4 32.43 24.19 33.16 24.04 33.79C23.89 34.42 22.84 34.71 21.71 34.43C20.58 34.15 19.79 33.42 19.94 32.79C20.09 32.16 21.14 31.87 22.27 32.15Z" fill="#3D6D4A"/>
<path d="M30.5599 34.82C31.6899 35.1 32.4799 35.83 32.3299 36.46C32.1799 37.09 31.1299 37.38 29.9999 37.1C28.8699 36.82 28.0799 36.09 28.2299 35.46C28.3799 34.83 29.4299 34.54 30.5599 34.82Z" fill="#3D6D4A"/>
<path d="M23.1301 28.57C24.0301 28.79 24.6601 29.37 24.5301 29.87C24.4101 30.37 23.5801 30.6 22.6801 30.38C21.7801 30.16 21.1501 29.58 21.2801 29.08C21.4001 28.58 22.2301 28.36 23.1301 28.57Z" fill="#3D6D4A"/>
<path d="M31.4 31.26C32.3 31.48 32.93 32.06 32.8 32.56C32.67 33.06 31.85 33.29 30.95 33.07C30.05 32.85 29.42 32.27 29.55 31.77C29.67 31.27 30.5 31.05 31.4 31.26Z" fill="#3D6D4A"/>
<path d="M32.53 27.67C33.43 27.89 34.06 28.47 33.93 28.97C33.81 29.47 32.98 29.7 32.08 29.48C31.18 29.26 30.55 28.68 30.68 28.18C30.8 27.68 31.63 27.45 32.53 27.67Z" fill="#3D6D4A"/>
<path d="M24.93 25.01C25.81 25.3 26.38 25.94 26.22 26.42C26.06 26.91 25.21 27.06 24.34 26.77C23.46 26.48 22.89 25.84 23.05 25.36C23.21 24.87 24.06 24.72 24.93 25.01Z" fill="#3D6D4A"/>
<path d="M27.2001 22.11C28.0301 22.52 28.5101 23.23 28.2801 23.69C28.0501 24.15 27.1901 24.18 26.3701 23.77C25.5401 23.36 25.0601 22.65 25.2901 22.19C25.5201 21.73 26.3801 21.7 27.2001 22.11Z" fill="#3D6D4A"/>
<path d="M34.32 24.68C35.11 24.91 35.65 25.45 35.52 25.87C35.39 26.3 34.65 26.46 33.87 26.22C33.08 25.99 32.54 25.45 32.67 25.03C32.8 24.6 33.54 24.45 34.32 24.68Z" fill="#3D6D4A"/>
<path d="M35.6299 21.08C36.4499 21.13 37.0899 21.53 37.0699 21.97C37.0399 22.41 36.3599 22.74 35.5399 22.69C34.7199 22.64 34.0799 22.24 34.0999 21.8C34.1299 21.36 34.8099 21.03 35.6299 21.08Z" fill="#3D6D4A"/>
<path d="M29.3899 19.42C30.1199 19.98 30.4599 20.77 30.1499 21.18C29.8399 21.59 28.9899 21.46 28.2599 20.89C27.5299 20.33 27.1899 19.54 27.4999 19.13C27.8099 18.72 28.6599 18.85 29.3899 19.42Z" fill="#3D6D4A"/>
<path d="M34.68 17.32C35.11 17.6 35.06 18.45 34.57 19.23C34.07 20.01 33.32 20.42 32.89 20.14C32.46 19.86 32.51 19.01 33 18.23C33.5 17.45 34.25 17.04 34.68 17.32Z" fill="#3D6D4A"/>
<path d="M39.96 4.43H16.04C15.67 4.43 15.42 4.68 15.42 5.05V8.77L12.69 14.78C12.26 15.77 12.01 16.82 12.01 17.94V50.95C12.01 51.32 12.26 51.57 12.63 51.57H43.36C43.73 51.57 43.98 51.32 43.98 50.95V17.87C43.98 16.76 43.73 15.7 43.3 14.71L40.57 8.7V4.98C40.57 4.67 40.26 4.42 39.95 4.42L39.96 4.43ZM16.66 5.67H39.27V8.21H16.66V5.67ZM42.19 15.27C42.56 16.08 42.75 17 42.75 17.87V50.27H13.25V17.87C13.25 16.94 13.44 16.07 13.81 15.27L16.47 9.45H39.52L42.18 15.27H42.19Z" fill="#3D6D4A"/>
</g>
<defs>
<clipPath id="clip0_14412_1691">
<rect width="56" height="56" fill="white"/>
</clipPath>
</defs>
</svg>
