<svg width="56" height="56" viewBox="0 0 56 56" fill="none" xmlns="http://www.w3.org/2000/svg">
<g clip-path="url(#clip0_14425_1150)">
<path d="M18.36 45.66C12.95 45.66 5.75 45.2 5.75 41.2C5.75 36.14 11.64 31.71 18.36 31.71C25.08 31.71 30.97 36.14 30.97 41.2C30.97 45.19 23.77 45.66 18.36 45.66ZM18.36 33.29C15.58 33.29 12.76 34.17 10.62 35.71C8.49 37.24 7.32 39.19 7.32 41.2C7.32 42.27 8.75 44.08 18.35 44.08C27.95 44.08 29.38 42.28 29.38 41.2C29.38 39.2 28.21 37.25 26.08 35.71C23.94 34.17 21.12 33.29 18.34 33.29H18.36Z" fill="#3D6D4A"/>
<path d="M5.10995 43.81H3.97995C3.68724 43.81 3.44995 44.0473 3.44995 44.34V45.38C3.44995 45.6727 3.68724 45.91 3.97995 45.91H5.10995C5.40266 45.91 5.63995 45.6727 5.63995 45.38V44.34C5.63995 44.0473 5.40266 43.81 5.10995 43.81Z" fill="#3D6D4A"/>
<path d="M22.76 50.28H21.63C21.3373 50.28 21.1 50.5173 21.1 50.81V51.85C21.1 52.1427 21.3373 52.38 21.63 52.38H22.76C23.0527 52.38 23.29 52.1427 23.29 51.85V50.81C23.29 50.5173 23.0527 50.28 22.76 50.28Z" fill="#3D6D4A"/>
<path d="M27.2299 46.73H26.0999C25.8072 46.73 25.5699 46.9673 25.5699 47.26V48.3C25.5699 48.5927 25.8072 48.83 26.0999 48.83H27.2299C27.5227 48.83 27.7599 48.5927 27.7599 48.3V47.26C27.7599 46.9673 27.5227 46.73 27.2299 46.73Z" fill="#3D6D4A"/>
<path d="M36.99 48.63H35.86C35.5672 48.63 35.33 48.8673 35.33 49.16V50.2C35.33 50.4927 35.5672 50.73 35.86 50.73H36.99C37.2827 50.73 37.52 50.4927 37.52 50.2V49.16C37.52 48.8673 37.2827 48.63 36.99 48.63Z" fill="#3D6D4A"/>
<path d="M45.43 43.81H44.3C44.0073 43.81 43.77 44.0473 43.77 44.34V45.38C43.77 45.6727 44.0073 45.91 44.3 45.91H45.43C45.7227 45.91 45.96 45.6727 45.96 45.38V44.34C45.96 44.0473 45.7227 43.81 45.43 43.81Z" fill="#3D6D4A"/>
<path d="M42.58 14.36H41.45C41.1573 14.36 40.92 14.5973 40.92 14.89V15.93C40.92 16.2227 41.1573 16.46 41.45 16.46H42.58C42.8728 16.46 43.11 16.2227 43.11 15.93V14.89C43.11 14.5973 42.8728 14.36 42.58 14.36Z" fill="#3D6D4A"/>
<path d="M39.14 12.26H38.01C37.7173 12.26 37.48 12.4973 37.48 12.79V13.83C37.48 14.1227 37.7173 14.36 38.01 14.36H39.14C39.4327 14.36 39.67 14.1227 39.67 13.83V12.79C39.67 12.4973 39.4327 12.26 39.14 12.26Z" fill="#3D6D4A"/>
<path d="M14.4 35.87H13.27C12.9773 35.87 12.74 36.1073 12.74 36.4V37.44C12.74 37.7327 12.9773 37.97 13.27 37.97H14.4C14.6927 37.97 14.93 37.7327 14.93 37.44V36.4C14.93 36.1073 14.6927 35.87 14.4 35.87Z" fill="#3D6D4A"/>
<path d="M12.04 39.82H10.91C10.6173 39.82 10.38 40.0573 10.38 40.35V41.39C10.38 41.6827 10.6173 41.92 10.91 41.92H12.04C12.3327 41.92 12.57 41.6827 12.57 41.39V40.35C12.57 40.0573 12.3327 39.82 12.04 39.82Z" fill="#3D6D4A"/>
<path d="M50.41 42.21C48.46 42.21 43.83 41.72 39.72 41.28C36.64 40.95 33.72 40.64 32.86 40.64C31.15 40.64 30.61 40.98 30.6 40.98C30.63 40.96 30.64 40.95 30.64 40.95L29.61 39.75C29.8 39.59 30.59 39.06 32.85 39.06C33.8 39.06 36.62 39.36 39.88 39.71C44.02 40.15 49.17 40.7 50.71 40.63C50.87 40.63 50.89 40.58 50.91 40.56C51.31 39.85 50.32 37.02 49.13 34.83C49.08 34.73 49.05 34.62 49.04 34.51C49.02 34.18 48.5 26.48 49.15 23.15C49.25 22.64 49.37 22.16 49.49 21.69C49.79 20.46 50.08 19.29 49.69 18.84C49.49 18.61 48.85 18.25 46.74 18.45C44.97 18.62 43.96 18.77 43.07 18.9C41.28 19.17 40.07 19.35 34.7 19.37C34.68 19.37 34.66 19.37 34.64 19.37H33.6C33.6 19.37 33.56 19.37 33.54 19.37C28.17 19.35 26.95 19.17 25.17 18.9C24.28 18.77 23.26 18.61 21.5 18.45C19.4 18.25 18.75 18.61 18.55 18.84C18.16 19.29 18.45 20.46 18.75 21.69C18.87 22.16 18.99 22.65 19.09 23.15C19.53 25.37 19.45 29.49 19.31 32.55C19.29 32.99 18.92 33.33 18.49 33.3C18.05 33.28 17.72 32.91 17.74 32.48C17.85 30.04 17.97 25.63 17.55 23.46C17.46 22.99 17.34 22.52 17.23 22.07C16.83 20.43 16.44 18.88 17.37 17.81C18.11 16.96 19.43 16.67 21.66 16.88C23.47 17.05 24.5 17.21 25.42 17.34C27.2 17.61 28.39 17.78 34.14 17.79C39.89 17.79 41.08 17.6 42.86 17.34C43.77 17.2 44.81 17.05 46.62 16.88C48.85 16.67 50.18 16.96 50.91 17.81C51.83 18.88 51.45 20.43 51.05 22.07C50.94 22.52 50.82 22.99 50.73 23.46C50.17 26.33 50.56 33.09 50.63 34.24C51.37 35.65 53.29 39.6 52.31 41.34C52.01 41.87 51.48 42.18 50.81 42.21C50.7 42.21 50.57 42.21 50.43 42.21H50.41Z" fill="#3D6D4A"/>
<path d="M49.82 35.23C49.7 35.23 49.58 35.2 49.47 35.15L47.36 34.11C46.97 33.92 46.81 33.44 47 33.05C47.19 32.66 47.67 32.5 48.06 32.69L50.17 33.73C50.56 33.92 50.72 34.4 50.53 34.79C50.39 35.07 50.11 35.23 49.82 35.23Z" fill="#3D6D4A"/>
<path d="M47.55 17.96C47.55 17.96 47.45 17.96 47.4 17.95C46.97 17.87 46.69 17.46 46.77 17.03C46.78 16.96 47.01 15.54 46 14.53C45.84 14.37 45.6 14.11 45.29 13.79C43.27 11.66 37.14 5.19 33.96 5.19C30.78 5.19 24.65 11.66 22.63 13.79C22.32 14.11 22.08 14.37 21.92 14.53C20.91 15.54 21.14 16.97 21.15 17.03C21.22 17.46 20.94 17.87 20.51 17.94C20.08 18.02 19.67 17.74 19.6 17.31C19.58 17.22 19.2 15.02 20.8 13.41C20.95 13.26 21.18 13.01 21.48 12.7C25.49 8.47 30.54 3.61 33.96 3.61C37.38 3.61 42.42 8.47 46.44 12.7C46.74 13.01 46.97 13.26 47.12 13.41C48.73 15.02 48.34 17.21 48.32 17.31C48.25 17.69 47.92 17.96 47.54 17.96H47.55Z" fill="#3D6D4A"/>
</g>
<defs>
<clipPath id="clip0_14425_1150">
<rect width="56" height="56" fill="white"/>
</clipPath>
</defs>
</svg>
