<svg width="56" height="56" viewBox="0 0 56 56" fill="none" xmlns="http://www.w3.org/2000/svg">
<path d="M45.78 46.77C45.04 46.77 44.3 46.7 43.58 46.57C40.32 45.95 37.59 44 35.49 40.78C35.35 40.52 35.43 40.2 35.67 40.04C35.91 39.88 36.24 39.94 36.42 40.17C38.36 43.13 40.83 44.91 43.78 45.47C46.49 45.97 49.29 45.47 51.66 44.08C51.73 44.03 51.79 43.95 51.83 43.87C52.78 41.23 52.76 38.34 51.77 35.71C50.69 32.92 48.53 30.78 45.33 29.38C45.19 29.33 45.07 29.22 45.01 29.07C44.95 28.92 44.95 28.77 45.01 28.63C45.07 28.49 45.19 28.38 45.33 28.33C45.47 28.28 45.63 28.29 45.77 28.36C49.25 29.88 51.62 32.22 52.8 35.31C54.18 38.9 53.55 42.75 52.84 44.34C52.72 44.6 52.52 44.83 52.28 44.99C50.32 46.17 48.06 46.79 45.77 46.77H45.78Z" fill="#3D6D4A"/>
<path d="M45.89 47.02C45.89 47.02 45.8 47.02 45.76 47.02C45.01 47.02 44.26 46.95 43.53 46.81C40.19 46.17 37.41 44.19 35.28 40.91C35.07 40.53 35.19 40.06 35.54 39.83C35.89 39.6 36.37 39.68 36.62 40.02C38.53 42.93 40.95 44.68 43.83 45.22C46.48 45.71 49.21 45.22 51.54 43.86C51.55 43.85 51.59 43.81 51.61 43.76C52.53 41.2 52.51 38.36 51.54 35.8C50.48 33.06 48.36 30.98 45.24 29.61C45.04 29.54 44.88 29.37 44.79 29.17C44.7 28.96 44.71 28.73 44.79 28.53C44.88 28.33 45.05 28.17 45.26 28.09C45.47 28.01 45.7 28.03 45.9 28.13C49.43 29.67 51.84 32.06 53.05 35.22C54.46 38.88 53.82 42.82 53.08 44.44C52.94 44.75 52.71 45.01 52.43 45.2C50.45 46.39 48.19 47.02 45.9 47.02H45.89ZM45.77 46.52C45.77 46.52 45.85 46.52 45.88 46.52C48.09 46.52 50.25 45.92 52.15 44.78C52.34 44.65 52.51 44.46 52.61 44.23C53.31 42.69 53.91 38.92 52.56 35.4C51.4 32.37 49.08 30.08 45.66 28.59C45.57 28.55 45.48 28.54 45.41 28.57C45.33 28.6 45.26 28.66 45.23 28.74C45.2 28.82 45.19 28.91 45.23 28.98C45.26 29.06 45.33 29.12 45.41 29.15C48.67 30.57 50.88 32.75 51.99 35.62C53 38.3 53.02 41.26 52.05 43.95C51.98 44.09 51.9 44.19 51.8 44.27C49.35 45.71 46.49 46.21 43.72 45.7C40.71 45.13 38.17 43.31 36.2 40.29C36.11 40.18 35.93 40.15 35.8 40.23C35.66 40.32 35.62 40.49 35.7 40.64C37.75 43.78 40.41 45.69 43.61 46.3C44.31 46.43 45.03 46.5 45.75 46.5H45.77V46.52Z" fill="#3D6D4A"/>
<path d="M35.1299 41.69H35.0499C34.8999 41.67 34.7699 41.59 34.6799 41.47C34.5499 41.3 31.6099 37.14 36.5699 31.13C41.5399 25.12 46.1199 27.32 46.3099 27.41C46.5799 27.55 46.6999 27.88 46.5599 28.15C45.4099 30.52 44.1099 31.5 43.1599 31.89C45.3399 34.21 44.3699 37.26 44.3199 37.4C44.2699 37.53 44.1799 37.65 44.0599 37.71C42.2999 38.65 40.1699 38.58 38.4699 37.53C38.2799 38.56 37.5799 40 35.4599 41.59C35.3599 41.65 35.2399 41.68 35.1199 41.67L35.1299 41.69ZM37.4299 31.84C33.9799 36.01 34.7699 39.1 35.2999 40.28C37.2599 38.64 37.4699 37.28 37.4599 36.75C37.4599 36.48 37.6099 36.23 37.8599 36.11C38.1199 35.99 38.4099 36.04 38.6299 36.22C39.2699 36.76 40.0599 37.1 40.8899 37.21C41.7199 37.32 42.5699 37.18 43.3299 36.82C43.5499 36 43.5399 35.13 43.2899 34.32C43.0399 33.51 42.5599 32.78 41.9199 32.23C41.6999 32.05 41.6099 31.76 41.6799 31.49C41.7499 31.23 41.9699 31.03 42.2399 30.99C42.7699 30.9 44.0499 30.43 45.2999 28.2C44.0799 27.88 40.9399 27.64 37.4799 31.82H37.4499L37.4299 31.84Z" fill="#3D6D4A"/>
<path d="M35.17 41.94C35.17 41.94 35.14 41.94 35.12 41.94H35.05C34.8 41.91 34.61 41.79 34.48 41.62C34.35 41.44 31.27 37.16 36.38 30.97C41.46 24.82 46.23 27.09 46.42 27.19C46.81 27.39 46.98 27.87 46.78 28.27C45.7 30.5 44.48 31.52 43.56 31.99C45.49 34.32 44.66 37.16 44.55 37.49C44.48 37.69 44.35 37.85 44.17 37.95C42.44 38.87 40.35 38.86 38.63 37.94C38.27 39.27 37.26 40.58 35.61 41.82C35.47 41.91 35.32 41.96 35.16 41.96L35.17 41.94ZM43.96 27.2C42.18 27.2 39.54 27.94 36.76 31.29C31.89 37.18 34.75 41.15 34.87 41.32C34.92 41.38 34.99 41.43 35.07 41.44H35.14C35.21 41.44 35.27 41.43 35.32 41.39C36.99 40.13 37.97 38.82 38.21 37.49L38.28 37.13L38.59 37.32C40.21 38.32 42.25 38.38 43.93 37.49C44 37.45 44.05 37.39 44.07 37.32C44.17 37.01 44.99 34.22 42.96 32.06L42.71 31.79L43.05 31.65C43.91 31.3 45.18 30.39 46.32 28.03C46.39 27.88 46.33 27.7 46.18 27.62C46.1 27.58 45.26 27.18 43.94 27.18L43.96 27.2ZM35.2 40.69L35.07 40.39C34.54 39.2 33.69 35.98 37.24 31.69L37.32 31.62C40.88 27.37 44.12 27.66 45.34 27.99L45.65 28.07L45.49 28.35C44.17 30.71 42.78 31.18 42.25 31.27C42.07 31.3 41.93 31.42 41.89 31.58C41.84 31.76 41.9 31.95 42.05 32.06C42.74 32.65 43.24 33.41 43.5 34.27C43.76 35.13 43.78 36.04 43.55 36.91L43.52 37.02L43.42 37.07C42.62 37.45 41.72 37.59 40.84 37.48C39.96 37.37 39.13 37.01 38.45 36.44C38.31 36.32 38.11 36.29 37.95 36.36C37.8 36.43 37.7 36.59 37.7 36.76C37.71 37.31 37.51 38.77 35.45 40.49L35.2 40.7V40.69ZM37.57 32.07C34.54 35.77 34.94 38.58 35.4 39.87C37.05 38.39 37.21 37.21 37.21 36.76C37.21 36.39 37.41 36.05 37.75 35.89C38.09 35.73 38.5 35.79 38.79 36.04C39.4 36.55 40.13 36.87 40.92 36.97C41.67 37.06 42.42 36.96 43.11 36.66C43.29 35.92 43.27 35.14 43.04 34.41C42.8 33.64 42.36 32.96 41.75 32.44C41.46 32.21 41.33 31.82 41.43 31.45C41.52 31.09 41.83 30.82 42.2 30.77C42.63 30.7 43.75 30.31 44.91 28.39C43.59 28.14 40.79 28.24 37.67 32L37.59 32.07H37.57Z" fill="#3D6D4A"/>
<path d="M37.02 32.07C36.87 32.07 36.7299 32.01 36.6199 31.9C35.4799 30.87 33.9599 30.37 32.43 30.52C32.12 30.56 31.8399 30.33 31.8099 30.03C31.7699 29.72 31.9999 29.44 32.2999 29.41C34.1699 29.21 36.0299 29.85 37.3899 31.14C37.5499 31.3 37.5899 31.54 37.5099 31.75C37.4199 31.96 37.22 32.09 36.99 32.09H37.0099L37.02 32.07Z" fill="#3D6D4A"/>
<path d="M37.01 32.32H35.09L36.36 31.98C35.3 31.07 33.88 30.62 32.47 30.76C32.26 30.78 32.05 30.72 31.88 30.59C31.71 30.46 31.6 30.26 31.58 30.05C31.53 29.6 31.85 29.2 32.29 29.15C34.23 28.94 36.16 29.6 37.58 30.94C37.82 31.18 37.88 31.52 37.75 31.83H38.88L37.37 32.24C37.26 32.3 37.13 32.33 37 32.33L37.01 32.32ZM32.98 30.23C34.39 30.23 35.75 30.75 36.8 31.7C36.87 31.77 36.95 31.81 37.03 31.81H37.07C37.17 31.79 37.26 31.72 37.3 31.63C37.35 31.52 37.32 31.38 37.24 31.29C35.94 30.05 34.15 29.44 32.35 29.64C32.18 29.66 32.06 29.81 32.08 29.99C32.1 30.16 32.26 30.27 32.43 30.26C32.62 30.24 32.8 30.23 32.99 30.23H32.98Z" fill="#3D6D4A"/>
<path d="M52.39 44.35C52.12 44.35 51.88 44.16 51.83 43.9C51.29 41.74 50.11 39.79 48.44 38.31C48.32 38.21 48.25 38.08 48.24 37.92C48.23 37.77 48.28 37.62 48.37 37.51C48.47 37.4 48.61 37.33 48.76 37.32C48.91 37.32 49.06 37.36 49.17 37.47C51.04 39.1 52.35 41.27 52.93 43.68C52.99 43.98 52.79 44.27 52.49 44.33L52.39 44.35Z" fill="#3D6D4A"/>
<path d="M52.3801 44.6C51.9901 44.6 51.6601 44.33 51.5901 43.94C51.0601 41.83 49.9201 39.94 48.2801 38.49C48.1201 38.36 48.0101 38.16 47.9901 37.94C47.9701 37.72 48.0401 37.5 48.1801 37.34C48.3201 37.17 48.5301 37.07 48.7501 37.06C48.9701 37.04 49.1801 37.13 49.3401 37.27C51.2501 38.94 52.5801 41.13 53.1701 43.61C53.2101 43.83 53.1701 44.05 53.0501 44.23C52.9301 44.41 52.7501 44.53 52.5301 44.57L52.3901 44.59H52.3701L52.3801 44.6ZM48.7901 37.57H48.7701C48.6901 37.57 48.6101 37.61 48.5501 37.68C48.5001 37.74 48.4701 37.83 48.4801 37.91C48.4801 37.99 48.5301 38.07 48.5901 38.12C50.3101 39.64 51.5101 41.62 52.0701 43.84C52.1001 44 52.2201 44.1 52.3601 44.1H52.4301C52.5101 44.07 52.5801 44.02 52.6301 43.96C52.6801 43.89 52.6901 43.81 52.6801 43.73C52.1201 41.37 50.8501 39.26 49.0101 37.66C48.9501 37.6 48.8701 37.57 48.8001 37.57H48.7901Z" fill="#3D6D4A"/>
<path d="M51.64 44.7C49.78 44.64 47.96 44.19 46.28 43.4C46.13 43.35 46.01 43.24 45.95 43.09C45.89 42.95 45.89 42.78 45.95 42.64C46.01 42.5 46.13 42.39 46.28 42.34C46.43 42.29 46.59 42.31 46.73 42.38C48.33 43.16 50.09 43.57 51.88 43.58C52.19 43.55 52.46 43.78 52.48 44.09C52.51 44.4 52.28 44.67 51.97 44.69C51.97 44.69 51.84 44.7 51.64 44.7Z" fill="#3D6D4A"/>
<path d="M51.64 44.95C49.74 44.89 47.9 44.44 46.18 43.62C45.99 43.56 45.82 43.4 45.73 43.19C45.64 42.98 45.64 42.75 45.73 42.54C45.82 42.33 46 42.17 46.21 42.1C46.42 42.03 46.66 42.05 46.86 42.16C48.41 42.91 50.15 43.32 51.89 43.33C52.32 43.28 52.7 43.62 52.74 44.07C52.76 44.28 52.69 44.49 52.55 44.66C52.41 44.83 52.22 44.93 52 44.94C52 44.94 51.86 44.95 51.65 44.95H51.64ZM46.45 42.56C46.45 42.56 46.39 42.56 46.35 42.58C46.27 42.61 46.2 42.67 46.17 42.75C46.14 42.83 46.13 42.92 46.17 43C46.2 43.08 46.27 43.14 46.35 43.17C48.03 43.97 49.81 44.4 51.64 44.46C51.82 44.46 51.94 44.46 51.95 44.46C52.03 44.46 52.11 44.41 52.16 44.35C52.21 44.29 52.24 44.21 52.23 44.13C52.22 43.96 52.08 43.84 51.9 43.85C50.07 43.85 48.25 43.42 46.62 42.63C46.57 42.6 46.51 42.59 46.46 42.59L46.45 42.56Z" fill="#3D6D4A"/>
<path d="M10.3 50.22C10.14 50.22 9.99002 50.16 9.89002 50.04C9.78002 49.93 9.73002 49.77 9.74002 49.62C9.77002 49.21 10.62 39.42 17.78 34.68C21.88 31.96 27.28 31.75 29.14 34.22C30.15 35.57 30.82 38.72 23.81 44.55C19.9 47.56 15.28 49.51 10.4 50.23H10.3V50.22ZM24.73 33.62C22.48 33.67 20.3 34.36 18.43 35.61C12.76 39.34 11.28 46.69 10.95 48.99C15.36 48.21 19.53 46.39 23.1 43.68C27.62 39.91 29.54 36.62 28.25 34.87C27.65 34.06 26.33 33.61 24.74 33.61L24.73 33.62Z" fill="#3D6D4A"/>
<path d="M10.31 50.47C10.08 50.47 9.86998 50.38 9.70998 50.21C9.55998 50.05 9.47998 49.82 9.49998 49.6C9.52998 49.18 10.42 39.25 17.65 34.47C21.84 31.69 27.42 31.5 29.34 34.06C30.4 35.49 31.12 38.78 23.97 44.73C20.03 47.76 15.35 49.74 10.43 50.46H10.3L10.31 50.47ZM24.73 32.74C22.59 32.74 20.08 33.47 17.93 34.89C10.9 39.54 10.03 49.24 9.99998 49.65C9.99998 49.73 10.02 49.82 10.08 49.88C10.14 49.94 10.22 49.98 10.3 49.98H10.39C15.2 49.27 19.79 47.32 23.66 44.35C30.48 38.67 29.9 35.66 28.94 34.37C28.12 33.28 26.56 32.74 24.73 32.74ZM10.66 49.31L10.71 48.97C11.03 46.75 12.53 39.21 18.3 35.41C20.21 34.13 22.43 33.43 24.73 33.38C26.45 33.38 27.81 33.88 28.45 34.74C29.86 36.63 27.96 39.96 23.26 43.89C19.67 46.62 15.43 48.47 10.99 49.25L10.65 49.31H10.66ZM24.74 33.88C22.54 33.93 20.41 34.6 18.58 35.83C13.25 39.33 11.67 46.18 11.26 48.7C15.49 47.9 19.53 46.1 22.96 43.5C27.29 39.89 29.25 36.64 28.06 35.04C27.53 34.32 26.29 33.88 24.75 33.88H24.74Z" fill="#3D6D4A"/>
<path d="M15.08 51.75C13.22 51.81 11.39 51.22 9.91998 50.07C9.70998 49.86 9.70998 49.52 9.89998 49.3C10.1 49.08 10.43 49.05 10.66 49.24C10.84 49.4 15.34 53.23 23.51 47.36C31.68 41.49 28.54 35.43 28.54 35.37C28.47 35.24 28.45 35.09 28.49 34.94C28.53 34.8 28.63 34.67 28.76 34.6C29.03 34.45 29.38 34.54 29.53 34.81C29.57 34.88 33.15 41.79 24.2 48.22C20.44 50.95 17.39 51.75 15.07 51.75H15.08Z" fill="#3D6D4A"/>
<path d="M14.82 52C13 52 11.22 51.39 9.76997 50.27C9.44997 49.94 9.43997 49.45 9.71997 49.14C10.01 48.82 10.49 48.78 10.83 49.05C11.02 49.22 15.39 52.9 23.38 47.16C30.63 41.95 28.79 36.55 28.34 35.52L28.32 35.47C28.22 35.29 28.2 35.08 28.26 34.87C28.32 34.66 28.46 34.48 28.64 34.38C29.03 34.16 29.53 34.3 29.75 34.69C29.79 34.77 33.48 41.86 24.35 48.43C21.09 50.8 17.97 52 15.08 52C14.99 52 14.9 52 14.82 52ZM10.33 49.37C10.25 49.37 10.16 49.41 10.1 49.47C9.98997 49.59 9.98997 49.78 10.1 49.89C11.5 50.97 13.27 51.54 15.07 51.49H15.08C17.86 51.49 20.88 50.32 24.06 48.01C32.79 41.73 29.35 34.99 29.32 34.92C29.24 34.78 29.05 34.72 28.89 34.81C28.82 34.85 28.77 34.92 28.74 35C28.72 35.08 28.73 35.17 28.77 35.24L28.8 35.31C29.31 36.51 31.16 42.17 23.67 47.55C15.36 53.53 10.7 49.59 10.51 49.42C10.46 49.38 10.39 49.36 10.33 49.36V49.37Z" fill="#3D6D4A"/>
<path d="M23.23 38.98C23.07 38.98 22.92 38.92 22.82 38.8C22.72 38.69 22.66 38.55 22.67 38.4C22.68 38.25 22.74 38.11 22.85 38.01C23.73 37.18 24.81 36.6 25.99 36.33C26.3 36.28 26.59 36.48 26.65 36.79C26.7 37.1 26.5 37.39 26.19 37.45C25.23 37.68 24.34 38.16 23.61 38.84C23.51 38.93 23.37 38.99 23.23 38.99V38.98Z" fill="#3D6D4A"/>
<path d="M23.2401 39.23C23.0201 39.23 22.8001 39.14 22.6501 38.97C22.5001 38.81 22.4301 38.6 22.4301 38.39C22.4301 38.18 22.5401 37.97 22.6901 37.83C23.6001 36.97 24.7201 36.37 25.9401 36.09C26.1701 36.05 26.3801 36.09 26.5601 36.22C26.7401 36.34 26.8601 36.53 26.9001 36.75C26.9401 36.97 26.8901 37.18 26.7601 37.36C26.6301 37.54 26.4501 37.66 26.2301 37.69C25.3201 37.91 24.4701 38.37 23.7801 39.01C23.6301 39.15 23.4301 39.22 23.2301 39.22L23.2401 39.23ZM23.2401 38.73C23.3101 38.75 23.3901 38.7 23.4501 38.65C24.2001 37.95 25.1301 37.45 26.1401 37.21C26.2401 37.19 26.3101 37.15 26.3601 37.08C26.4101 37.01 26.4301 36.93 26.4101 36.84C26.4001 36.76 26.3501 36.68 26.2801 36.63C26.2101 36.58 26.1301 36.56 26.0401 36.58C24.9201 36.84 23.8701 37.39 23.0301 38.19C22.9701 38.25 22.9301 38.33 22.9301 38.41C22.9301 38.49 22.9601 38.57 23.0101 38.63C23.0701 38.69 23.1501 38.73 23.2401 38.73Z" fill="#3D6D4A"/>
<path d="M18.6201 44.25C18.4801 44.25 18.3501 44.2 18.2501 44.11C18.1401 44.01 18.0701 43.87 18.0601 43.72C18.0601 43.57 18.1001 43.42 18.2001 43.31C18.8701 42.62 19.7001 42.1 20.6201 41.8C20.9101 41.71 21.2301 41.87 21.3201 42.17C21.4101 42.46 21.2501 42.78 20.9501 42.87C20.2201 43.11 19.5701 43.52 19.0301 44.07C18.9201 44.19 18.7701 44.26 18.6101 44.25H18.6201Z" fill="#3D6D4A"/>
<path d="M18.63 44.5C18.43 44.5 18.24 44.43 18.1 44.3C17.94 44.16 17.84 43.95 17.83 43.74C17.82 43.52 17.89 43.31 18.04 43.15C18.74 42.42 19.61 41.88 20.57 41.57C21 41.44 21.45 41.68 21.59 42.1C21.65 42.31 21.63 42.52 21.53 42.72C21.43 42.91 21.26 43.05 21.05 43.12C20.37 43.34 19.74 43.74 19.24 44.25C19.09 44.41 18.88 44.51 18.65 44.51L18.63 44.5ZM20.79 42.03C20.79 42.03 20.73 42.03 20.7 42.04C19.83 42.32 19.03 42.83 18.39 43.49C18.34 43.54 18.31 43.63 18.32 43.71C18.32 43.79 18.36 43.87 18.42 43.92C18.48 43.97 18.55 44 18.62 44C18.7 44.01 18.79 43.96 18.85 43.9C19.42 43.32 20.12 42.88 20.87 42.63C20.95 42.6 21.02 42.55 21.06 42.48C21.1 42.41 21.11 42.32 21.08 42.25C21.04 42.12 20.92 42.03 20.78 42.03H20.79Z" fill="#3D6D4A"/>
<path d="M18.25 39.29C18.02 39.29 17.81 39.16 17.72 38.95C17.63 38.74 17.68 38.49 17.84 38.33C18.62 37.5 19.6 36.88 20.68 36.53C20.98 36.45 21.28 36.62 21.37 36.92C21.41 37.06 21.39 37.22 21.32 37.35C21.25 37.48 21.13 37.58 20.98 37.62C20.1 37.91 19.3 38.42 18.67 39.1C18.57 39.22 18.42 39.3 18.26 39.3L18.25 39.29Z" fill="#3D6D4A"/>
<path d="M18.23 39.54C17.91 39.54 17.62 39.35 17.49 39.05C17.36 38.74 17.43 38.39 17.66 38.15C18.46 37.3 19.48 36.65 20.6 36.29C21.04 36.16 21.48 36.42 21.61 36.84C21.67 37.04 21.64 37.27 21.54 37.46C21.44 37.65 21.26 37.79 21.05 37.85C20.22 38.12 19.46 38.61 18.85 39.26C18.71 39.43 18.49 39.53 18.26 39.54H18.23ZM20.83 36.76C20.83 36.76 20.78 36.76 20.75 36.77C19.72 37.1 18.78 37.7 18.03 38.5C17.93 38.6 17.91 38.73 17.96 38.85C18.01 38.97 18.13 39.05 18.25 39.03C18.34 39.03 18.42 38.99 18.48 38.92C19.15 38.21 19.99 37.67 20.91 37.37C21 37.34 21.07 37.29 21.11 37.22C21.15 37.15 21.16 37.06 21.14 36.98C21.1 36.84 20.98 36.75 20.84 36.75L20.83 36.76Z" fill="#3D6D4A"/>
<path d="M14.7599 45.08C14.6399 45.08 14.5299 45.04 14.4299 44.97C14.3099 44.88 14.2299 44.75 14.2099 44.6C14.1899 44.45 14.2299 44.3 14.3099 44.18C14.6999 43.68 15.1899 43.26 15.7499 42.97C16.0299 42.83 16.3599 42.94 16.4999 43.22C16.6399 43.5 16.5299 43.83 16.2499 43.97C15.8499 44.19 15.4999 44.49 15.2199 44.85C15.1099 45 14.9299 45.08 14.7499 45.07L14.7599 45.08Z" fill="#3D6D4A"/>
<path d="M14.78 45.33C14.6 45.33 14.43 45.28 14.28 45.18C14.1 45.05 13.99 44.86 13.96 44.65C13.93 44.44 13.98 44.22 14.11 44.05C14.53 43.51 15.04 43.08 15.64 42.77C15.84 42.67 16.06 42.65 16.26 42.72C16.47 42.79 16.63 42.93 16.73 43.13C16.93 43.53 16.77 44.02 16.37 44.22C16.01 44.42 15.69 44.69 15.43 45.03C15.28 45.23 15.04 45.35 14.79 45.35L14.78 45.33ZM16 43.17C16 43.17 15.9 43.18 15.86 43.2C15.33 43.48 14.87 43.87 14.5 44.34C14.45 44.4 14.43 44.48 14.45 44.57C14.47 44.66 14.51 44.72 14.57 44.77C14.62 44.81 14.68 44.83 14.75 44.83H14.76C14.86 44.83 14.96 44.79 15.02 44.71C15.32 44.32 15.7 44 16.13 43.76C16.29 43.68 16.35 43.49 16.28 43.34C16.24 43.27 16.18 43.21 16.1 43.18C16.07 43.18 16.04 43.16 16 43.16V43.17Z" fill="#3D6D4A"/>
<path d="M14.02 30.98C9.65997 30.98 7.59997 28.59 5.97997 26.72C4.91997 25.49 4.05997 24.52 2.89997 24.43C2.66997 24.41 2.47997 24.26 2.40997 24.04C2.33997 23.82 2.40997 23.59 2.57997 23.44C3.21997 22.88 3.41997 21.47 3.64997 19.81C4.24997 15.48 5.13997 8.96002 15.73 8.96002H16.23C18.52 9.00002 20.34 9.71002 21.63 11.07C22.88 12.5 23.59 14.32 23.62 16.22C24.23 17.06 26.87 20.97 25.74 24.7C25.05 27.05 23.01 28.83 19.7 29.91C17.87 30.57 15.96 30.92 14.02 30.97V30.98ZM3.90997 23.51C5.04997 23.93 5.91997 24.92 6.83997 25.99C9.07997 28.55 11.57 31.47 19.34 28.86C22.3 27.88 24.1 26.37 24.7 24.39C25.77 20.84 22.68 16.8 22.65 16.76C22.57 16.66 22.53 16.53 22.53 16.4C22.53 16.37 22.57 13.68 20.82 11.84C19.74 10.72 18.19 10.12 16.22 10.09C6.12997 9.89002 5.35997 15.48 4.74997 19.97C4.55997 21.37 4.38997 22.63 3.90997 23.51Z" fill="#3D6D4A"/>
<path d="M14.02 31.23C9.53997 31.23 7.36997 28.72 5.78997 26.88C4.80997 25.74 3.95997 24.76 2.87997 24.67C2.54997 24.64 2.26997 24.43 2.16997 24.11C2.06997 23.8 2.16997 23.46 2.41997 23.24C2.98997 22.74 3.17997 21.36 3.39997 19.77C4.00997 15.36 4.92997 8.71002 15.72 8.71002H16.22C18.58 8.76002 20.46 9.49002 21.8 10.9C23.08 12.36 23.81 14.22 23.86 16.14C24.52 17.05 27.11 21 25.97 24.77C25.25 27.23 23.17 29.04 19.77 30.15C17.92 30.81 15.98 31.17 14.01 31.22L14.02 31.23ZM16.22 9.22002H15.73C5.36997 9.22002 4.48997 15.61 3.89997 19.84C3.66997 21.54 3.45997 23.01 2.74997 23.63C2.64997 23.71 2.60997 23.84 2.64997 23.96C2.68997 24.08 2.78997 24.16 2.91997 24.17C4.19997 24.27 5.10997 25.32 6.16997 26.55C7.77997 28.41 9.76997 30.73 14.02 30.73C15.94 30.69 17.82 30.33 19.62 29.69C22.85 28.63 24.83 26.93 25.5 24.64C26.6 20.99 23.96 17.12 23.42 16.38L23.37 16.32V16.24C23.34 14.4 22.65 12.63 21.44 11.25C20.2 9.95002 18.44 9.27002 16.22 9.22002ZM13.99 30.14C10.14 30.14 8.33997 28.08 6.69997 26.19C5.76997 25.13 4.91997 24.15 3.83997 23.75L3.56997 23.65L3.70997 23.4C4.16997 22.55 4.33997 21.28 4.51997 19.94C5.13997 15.43 5.89997 9.84002 15.73 9.84002C15.9 9.84002 16.07 9.84002 16.25 9.84002C18.29 9.88002 19.9 10.5 21.03 11.67C22.78 13.51 22.81 16.11 22.81 16.4C22.81 16.48 22.83 16.55 22.87 16.61C23.2 17.05 26.03 20.94 24.96 24.46C24.34 26.53 22.48 28.08 19.44 29.1C17.25 29.83 15.47 30.14 13.99 30.14ZM4.25997 23.39C5.32997 23.88 6.15997 24.83 7.03997 25.83C9.23997 28.35 11.69 31.17 19.27 28.63C22.15 27.67 23.89 26.22 24.47 24.32C25.46 21.05 22.77 17.33 22.46 16.92C22.34 16.77 22.28 16.59 22.29 16.4C22.29 16.29 22.29 13.74 20.65 12.02C19.61 10.94 18.12 10.38 16.22 10.34C6.34997 10.17 5.59997 15.61 4.99997 20C4.82997 21.27 4.65997 22.47 4.25997 23.38V23.39Z" fill="#3D6D4A"/>
<path d="M2.94001 24.43C2.72001 24.43 2.52001 24.3 2.43001 24.1C2.34001 23.9 2.37001 23.67 2.51001 23.5C5.97001 19.45 11.93 17.19 19.28 17.15C19.43 17.15 19.57 17.21 19.68 17.31C19.78 17.42 19.84 17.56 19.84 17.71C19.84 17.86 19.78 18 19.68 18.11C19.57 18.21 19.43 18.27 19.28 18.27C12.27 18.31 6.61001 20.46 3.36001 24.23C3.25001 24.35 3.10001 24.43 2.94001 24.43Z" fill="#3D6D4A"/>
<path d="M2.94002 24.68C2.63002 24.68 2.34002 24.5 2.21002 24.21C2.08002 23.93 2.13002 23.59 2.33002 23.35C5.84002 19.24 11.86 16.95 19.28 16.91C19.5 16.91 19.7 16.99 19.85 17.15C20 17.3 20.09 17.51 20.09 17.72C20.09 17.93 20.01 18.14 19.85 18.29C19.7 18.44 19.49 18.53 19.28 18.53C12.35 18.57 6.77002 20.66 3.55002 24.41C3.40002 24.59 3.17002 24.69 2.94002 24.69V24.68ZM19.28 17.4C12 17.44 6.12002 19.67 2.70002 23.67C2.62002 23.76 2.60002 23.89 2.65002 24C2.74002 24.19 3.03002 24.23 3.17002 24.07C6.48002 20.21 12.2 18.07 19.27 18.02C19.35 18.02 19.43 17.99 19.49 17.93C19.55 17.87 19.58 17.79 19.58 17.71C19.58 17.63 19.55 17.55 19.49 17.49C19.43 17.43 19.36 17.4 19.27 17.4H19.28Z" fill="#3D6D4A"/>
<path d="M12.89 27.46C11.82 27.43 10.83 26.91 10.2 26.05C10.02 25.8 10.09 25.45 10.34 25.27C10.59 25.09 10.94 25.16 11.12 25.41C11.39 25.8 11.78 26.09 12.23 26.23C12.68 26.38 13.16 26.38 13.61 26.23C14.21 26.03 14.85 25.99 15.47 26.13C16.09 26.29 16.75 26.17 17.28 25.81C17.83 25.34 18.51 25.04 19.22 24.93C20.16 24.83 20.75 24.44 20.95 23.77C21.04 23.47 21.35 23.31 21.65 23.4C21.95 23.49 22.11 23.8 22.02 24.1C21.68 25.22 20.73 25.91 19.34 26.05C18.83 26.13 18.35 26.34 17.95 26.67C17.17 27.23 16.18 27.43 15.24 27.2C14.83 27.1 14.39 27.12 13.99 27.25C13.64 27.39 13.26 27.47 12.88 27.47L12.89 27.46Z" fill="#3D6D4A"/>
<path d="M12.89 27.71C11.75 27.68 10.67 27.11 10.01 26.19C9.74999 25.82 9.83999 25.32 10.21 25.06C10.58 24.81 11.08 24.9 11.34 25.26C11.58 25.6 11.92 25.86 12.32 25.99C12.71 26.12 13.15 26.12 13.54 25.99C14.18 25.77 14.87 25.73 15.53 25.88C16.09 26.02 16.68 25.92 17.15 25.6C17.72 25.11 18.44 24.79 19.2 24.68C20.06 24.59 20.55 24.27 20.72 23.69C20.85 23.26 21.3 23.02 21.73 23.15C22.16 23.28 22.4 23.73 22.27 24.16C21.91 25.37 20.88 26.13 19.38 26.29C18.93 26.36 18.49 26.55 18.13 26.85C17.28 27.47 16.21 27.67 15.21 27.43C14.84 27.34 14.46 27.36 14.1 27.47C13.73 27.62 13.33 27.7 12.91 27.71H12.89ZM10.66 25.42C10.6 25.42 10.54 25.44 10.48 25.47C10.34 25.57 10.31 25.76 10.4 25.9C10.97 26.69 11.9 27.18 12.88 27.21C13.23 27.21 13.57 27.13 13.9 27C14.36 26.85 14.84 26.83 15.3 26.94C16.17 27.15 17.08 26.98 17.8 26.45C18.22 26.1 18.74 25.87 19.3 25.79C20.6 25.65 21.47 25.02 21.78 24.01C21.83 23.85 21.74 23.67 21.57 23.62C21.41 23.57 21.23 23.66 21.18 23.83C21.02 24.36 20.55 25.03 19.24 25.17C18.58 25.27 17.95 25.55 17.43 25.99C16.82 26.41 16.09 26.54 15.4 26.36C14.83 26.23 14.24 26.27 13.68 26.45C13.18 26.62 12.64 26.62 12.14 26.45C11.64 26.28 11.21 25.97 10.91 25.53C10.85 25.44 10.75 25.4 10.66 25.4V25.42Z" fill="#3D6D4A"/>
<path d="M11.81 22.17C11.54 22.17 11.31 21.98 11.26 21.71C11.21 21.45 11.36 21.19 11.6 21.09C13.48 20.46 15.44 20.11 17.42 20.06C17.57 20.06 17.71 20.12 17.82 20.22C17.92 20.33 17.98 20.47 17.98 20.62C17.98 20.77 17.92 20.91 17.82 21.02C17.72 21.12 17.57 21.18 17.42 21.18C15.58 21.23 13.75 21.55 12 22.13C11.94 22.16 11.87 22.17 11.8 22.17H11.81Z" fill="#3D6D4A"/>
<path d="M11.81 22.42C11.42 22.42 11.09 22.14 11.02 21.76C10.95 21.38 11.16 21 11.52 20.86C13.43 20.22 15.42 19.86 17.42 19.81C17.64 19.81 17.85 19.9 18 20.05C18.15 20.2 18.24 20.41 18.24 20.62C18.24 20.83 18.15 21.04 18 21.19C17.85 21.34 17.64 21.43 17.43 21.43C15.62 21.48 13.82 21.79 12.09 22.37C12.02 22.4 11.93 22.42 11.83 22.43L11.81 22.42ZM17.42 20.31C15.47 20.36 13.54 20.71 11.68 21.33C11.55 21.38 11.47 21.52 11.5 21.67C11.53 21.81 11.65 21.92 11.79 21.92C11.83 21.92 11.86 21.91 11.89 21.9C13.69 21.3 15.54 20.98 17.4 20.93C17.49 20.93 17.57 20.9 17.63 20.84C17.69 20.78 17.72 20.7 17.72 20.62C17.72 20.54 17.69 20.46 17.63 20.4C17.57 20.34 17.49 20.31 17.41 20.31H17.42Z" fill="#3D6D4A"/>
<path d="M8.27003 17.34C8.27003 17.34 8.18003 17.34 8.14003 17.34C8.00003 17.31 7.87003 17.22 7.79003 17.09C7.71003 16.96 7.69003 16.81 7.72003 16.67C7.99003 15.55 8.90003 14.79 10.27 14.55C10.77 14.45 11.24 14.2 11.61 13.85C12.35 13.24 13.33 12.98 14.28 13.15C14.7 13.22 15.13 13.18 15.53 13.02C16.19 12.74 16.93 12.69 17.63 12.86C18.33 13.04 18.95 13.44 19.39 14.01C19.55 14.25 19.5 14.58 19.27 14.76C19.04 14.94 18.72 14.92 18.52 14.71C18.23 14.34 17.82 14.08 17.36 13.96C16.9 13.84 16.42 13.87 15.98 14.05C15.4 14.29 14.76 14.37 14.13 14.27C13.5 14.15 12.84 14.31 12.34 14.7C11.81 15.19 11.16 15.52 10.46 15.66C9.53003 15.82 8.97003 16.25 8.78003 16.93C8.72003 17.17 8.51003 17.33 8.26003 17.34H8.27003Z" fill="#3D6D4A"/>
<path d="M8.20001 17.59C8.20001 17.59 8.13001 17.59 8.10001 17.59C7.87001 17.54 7.69001 17.41 7.57001 17.23C7.46001 17.05 7.42001 16.83 7.47001 16.62C7.76001 15.41 8.76001 14.57 10.22 14.31C10.67 14.22 11.09 14 11.43 13.68C12.24 13.01 13.29 12.73 14.32 12.92C14.69 12.98 15.08 12.95 15.43 12.81C16.14 12.51 16.94 12.45 17.68 12.64C18.43 12.83 19.1 13.27 19.58 13.88C19.83 14.25 19.75 14.71 19.42 14.98C19.09 15.24 18.62 15.21 18.33 14.9C18.06 14.56 17.69 14.33 17.29 14.22C16.89 14.11 16.46 14.14 16.07 14.3C15.44 14.56 14.76 14.64 14.09 14.53C13.52 14.42 12.94 14.56 12.49 14.91C11.95 15.42 11.25 15.77 10.5 15.92C9.66001 16.06 9.18001 16.42 9.02001 17.01C8.93001 17.35 8.63001 17.59 8.28001 17.61C8.25001 17.61 8.22001 17.61 8.19001 17.61L8.20001 17.59ZM13.7 13.35C13 13.35 12.32 13.59 11.77 14.04C11.37 14.42 10.87 14.68 10.32 14.79C9.04001 15.01 8.20001 15.7 7.96001 16.72C7.94001 16.8 7.96001 16.88 8.00001 16.95C8.04001 17.02 8.11001 17.07 8.19001 17.09H8.25001C8.39001 17.08 8.50001 16.99 8.54001 16.86C8.75001 16.07 9.38001 15.58 10.42 15.41C11.07 15.28 11.68 14.97 12.17 14.51C12.75 14.06 13.48 13.88 14.18 14.02C14.75 14.11 15.34 14.04 15.89 13.81C16.38 13.62 16.92 13.58 17.42 13.71C17.92 13.84 18.38 14.14 18.71 14.55C18.81 14.65 18.99 14.66 19.11 14.57C19.24 14.47 19.26 14.29 19.17 14.16C18.77 13.66 18.19 13.28 17.55 13.11C16.91 12.94 16.22 13 15.61 13.25C15.17 13.43 14.69 13.48 14.22 13.39C14.04 13.36 13.86 13.34 13.68 13.34L13.7 13.35Z" fill="#3D6D4A"/>
<path d="M40.6299 24.19C39.8399 24.19 39.0499 24.06 38.3099 23.8C34.2999 22.48 33.0699 22.01 31.4499 20.9C29.2399 19.43 27.7999 17.06 27.5199 14.42C27.2899 11.99 27.9999 8.70999 32.6699 6.83999C39.3699 4.14999 43.5799 4.24999 43.7599 4.24999C43.9699 4.24999 44.1499 4.37999 44.2499 4.55999C44.3799 4.82999 47.5499 11.32 47.8699 15.54C48.0399 18.33 46.8599 21.03 44.6999 22.8C43.5399 23.71 42.1099 24.2 40.6399 24.19H40.6299ZM43.3899 5.35999C42.2699 5.39999 38.4899 5.68999 33.0599 7.86999C29.8199 9.16999 28.3299 11.34 28.6399 14.3C28.8999 16.61 30.1699 18.69 32.0999 19.97C33.6099 21.01 34.7799 21.47 38.6499 22.74C40.4599 23.42 42.4799 23.09 43.9899 21.89C45.8499 20.35 46.8699 18.02 46.7399 15.61C46.4699 12.11 44.0199 6.71999 43.3799 5.35999H43.3899Z" fill="#3D6D4A"/>
<path d="M40.63 24.44C39.81 24.44 39 24.3 38.23 24.04C34.19 22.71 32.95 22.23 31.31 21.11C29.03 19.6 27.56 17.17 27.27 14.45C27.03 11.94 27.75 8.55 32.57 6.61C38.68 4.15 42.76 4 43.67 4H43.74C44.07 4 44.33 4.18 44.47 4.45C44.6 4.72 47.79 11.22 48.12 15.51C48.3 18.38 47.08 21.17 44.86 22.99C43.67 23.93 42.19 24.44 40.69 24.44H40.65H40.63ZM40.63 23.94H40.67C42.07 23.94 43.44 23.47 44.54 22.6C46.63 20.89 47.79 18.25 47.62 15.55C47.3 11.35 44.06 4.74 44.02 4.67C43.97 4.57 43.87 4.5 43.75 4.5C42.98 4.48 38.94 4.59 32.76 7.07C28.22 8.89 27.54 12.06 27.77 14.4C28.04 16.97 29.43 19.27 31.59 20.7C33.18 21.78 34.39 22.26 38.39 23.57C39.12 23.81 39.87 23.94 40.64 23.94H40.63ZM40.56 23.34C39.89 23.34 39.21 23.22 38.56 22.98C34.68 21.7 33.5 21.24 31.96 20.18C29.96 18.86 28.65 16.73 28.39 14.34C28.06 11.25 29.6 9 32.97 7.65C38.3 5.51 42.03 5.17 43.38 5.12H43.55L43.62 5.26C44.35 6.8 46.74 12.1 47.01 15.6C47.13 18.08 46.07 20.5 44.17 22.09C43.14 22.91 41.86 23.34 40.58 23.34H40.56ZM43.23 5.62C42 5.68 38.3 6.04 33.15 8.1C30.02 9.36 28.59 11.44 28.89 14.27C29.14 16.51 30.36 18.51 32.24 19.75C33.74 20.78 34.9 21.23 38.73 22.49C40.45 23.13 42.41 22.82 43.84 21.68C45.62 20.2 46.62 17.93 46.5 15.61C46.25 12.31 44.02 7.29 43.23 5.6V5.62Z" fill="#3D6D4A"/>
<path d="M35.35 22.77C35.27 22.77 35.19 22.75 35.12 22.72C34.66 22.49 34.28 22.13 34.02 21.69C33.76 21.25 33.64 20.74 33.67 20.22C33.61 17.46 36.08 13.47 38.67 12.17C38.94 12.03 39.28 12.14 39.42 12.42C39.49 12.55 39.51 12.71 39.46 12.86C39.41 13.01 39.31 13.13 39.17 13.19C36.99 14.31 34.74 17.91 34.79 20.22C34.76 20.52 34.81 20.83 34.96 21.1C35.1 21.37 35.33 21.59 35.6 21.73C35.82 21.85 35.94 22.1 35.88 22.35C35.82 22.6 35.61 22.77 35.36 22.78L35.35 22.77Z" fill="#3D6D4A"/>
<path d="M35.35 23.02C35.23 23.02 35.12 22.99 35.02 22.95C34.51 22.69 34.09 22.3 33.81 21.82C33.53 21.33 33.4 20.78 33.43 20.21C33.37 17.39 35.91 13.29 38.56 11.95C38.95 11.75 39.44 11.91 39.64 12.31C39.74 12.5 39.76 12.73 39.69 12.94C39.62 13.15 39.47 13.32 39.27 13.42C37.16 14.5 34.98 18 35.03 20.22C35 20.51 35.05 20.76 35.17 20.99C35.29 21.22 35.47 21.4 35.7 21.51C36.02 21.68 36.19 22.05 36.11 22.4C36.03 22.75 35.72 23.01 35.36 23.03L35.35 23.02ZM38.91 12.36C38.91 12.36 38.82 12.37 38.77 12.39C36.26 13.65 33.86 17.53 33.91 20.21C33.88 20.69 33.99 21.15 34.23 21.56C34.46 21.96 34.81 22.28 35.22 22.49C35.25 22.5 35.29 22.51 35.33 22.51C35.46 22.51 35.58 22.4 35.61 22.27C35.64 22.14 35.58 22 35.45 21.93C35.14 21.77 34.88 21.52 34.71 21.2C34.54 20.88 34.47 20.53 34.52 20.18C34.47 17.79 36.74 14.13 39.03 12.96C39.11 12.92 39.17 12.85 39.2 12.77C39.23 12.69 39.22 12.6 39.18 12.52C39.12 12.41 39.01 12.35 38.9 12.35L38.91 12.36Z" fill="#3D6D4A"/>
<path d="M31.77 21.01C31.65 21.01 31.54 20.97 31.44 20.9C28.93 19.07 28.65 16.55 30.43 12.71C32.48 8.37999 40.45 7.29999 40.79 7.25999C40.94 7.23999 41.09 7.27999 41.2 7.36999C41.32 7.45999 41.39 7.59999 41.41 7.73999C41.45 8.03999 41.24 8.31999 40.93 8.36999C40.85 8.36999 33.22 9.41999 31.43 13.18C29.47 17.32 30.59 18.9 32.08 19.99C32.27 20.13 32.35 20.38 32.28 20.61C32.21 20.84 31.99 20.99 31.75 20.99L31.77 21.01Z" fill="#3D6D4A"/>
<path d="M31.7599 21.26C31.5899 21.26 31.43 21.21 31.29 21.1C28.69 19.2 28.3499 16.58 30.2099 12.61C32.2599 8.26999 39.8999 7.12999 40.7599 7.00999C40.9699 6.98999 41.1899 7.03999 41.36 7.16999C41.53 7.29999 41.6399 7.49999 41.6699 7.70999C41.7299 8.13999 41.4199 8.54999 40.9799 8.60999C40.8899 8.60999 33.4 9.62999 31.6699 13.28C29.7899 17.25 30.8399 18.75 32.2499 19.78C32.5299 19.99 32.64 20.35 32.54 20.68C32.47 20.89 32.33 21.05 32.15 21.14L32.2 21.23H31.78L31.7599 21.26ZM40.86 7.51999C40.86 7.51999 40.8299 7.51999 40.8199 7.51999C40.4899 7.55999 32.6299 8.65999 30.6599 12.83C28.8999 16.6 29.1799 18.95 31.5899 20.71C31.6199 20.73 31.66 20.75 31.69 20.76H31.7599C31.8899 20.76 32.0099 20.67 32.0499 20.55C32.0899 20.42 32.05 20.29 31.94 20.21C30.44 19.11 29.1699 17.41 31.2099 13.1C33.0599 9.20999 40.8499 8.14999 40.9199 8.13999C41.0699 8.11999 41.1799 7.95999 41.1599 7.79999C41.1599 7.71999 41.11 7.63999 41.04 7.58999C40.99 7.54999 40.9199 7.52999 40.8499 7.52999L40.86 7.51999Z" fill="#3D6D4A"/>
<path d="M40.63 21.29C40.35 21.29 40.12 21.1 40.07 20.82C40.02 20.55 40.18 20.28 40.45 20.2C42.13 19.61 43.2 18.67 43.69 17.41C44.65 14.95 43.1 12.02 43.08 11.99C42.93 11.72 43.04 11.38 43.31 11.23C43.58 11.08 43.92 11.19 44.07 11.46C44.14 11.6 45.87 14.88 44.73 17.81C44.12 19.39 42.8 20.55 40.82 21.25C40.76 21.27 40.7 21.29 40.63 21.29Z" fill="#3D6D4A"/>
<path d="M40.62 21.54C40.22 21.54 39.89 21.26 39.82 20.87C39.75 20.48 39.99 20.09 40.36 19.97C41.94 19.42 42.98 18.53 43.45 17.32C44.36 14.99 42.87 12.14 42.86 12.11C42.76 11.92 42.73 11.7 42.8 11.49C42.86 11.28 43 11.11 43.19 11.01C43.38 10.91 43.6 10.89 43.81 10.95C44.02 11.01 44.19 11.15 44.29 11.34C44.48 11.71 46.1 14.97 44.97 17.9C44.33 19.56 42.96 20.76 40.91 21.49C40.83 21.52 40.74 21.54 40.64 21.54H40.62ZM43.57 11.41C43.52 11.41 43.47 11.42 43.42 11.45C43.35 11.49 43.29 11.56 43.27 11.64C43.25 11.72 43.25 11.8 43.29 11.88C43.3 11.9 44.92 14.92 43.91 17.51C43.39 18.85 42.25 19.84 40.52 20.45C40.37 20.5 40.28 20.65 40.31 20.8C40.34 20.95 40.46 21.06 40.61 21.06C40.63 21.06 40.68 21.06 40.72 21.04C42.63 20.36 43.9 19.25 44.49 17.74C45.54 15.02 44.02 11.94 43.84 11.6C43.8 11.52 43.73 11.47 43.65 11.45C43.62 11.45 43.59 11.44 43.56 11.44L43.57 11.41Z" fill="#3D6D4A"/>
</svg>
