<svg width="56" height="56" viewBox="0 0 56 56" fill="none" xmlns="http://www.w3.org/2000/svg">
<g clip-path="url(#clip0_14425_1790)">
<path d="M21.9499 42.13C21.6699 42.25 21.4199 42.36 21.1799 42.45L23.7599 48.37C23.8799 48.65 23.7399 49.01 23.4599 49.13C23.0499 49.31 22.7699 49.64 22.6299 50C22.4799 50.38 22.4699 50.82 22.6499 51.2V51.23C22.8499 51.61 23.1599 51.89 23.5199 52.03C23.8999 52.18 24.3099 52.18 24.7199 52.01C24.9099 51.93 25.0499 51.83 25.1799 51.7C25.3299 51.58 25.4199 51.41 25.5199 51.24C25.6599 50.96 25.9599 50.84 26.2399 50.92C26.4299 50.97 26.6199 51.01 26.8099 50.99C26.9899 50.99 27.1899 50.96 27.3499 50.86C27.7599 50.68 28.0399 50.35 28.1799 49.99C28.3299 49.61 28.3299 49.2 28.1599 48.79V48.76C27.9799 48.39 27.6699 48.11 27.2899 47.96C26.9299 47.82 26.4999 47.81 26.0899 47.98C25.8099 48.1 25.4499 47.96 25.3299 47.68L22.7099 41.78C22.4799 41.9 22.2299 42.01 21.9499 42.13ZM20.0199 42.77C17.6099 43.25 16.6099 41.91 15.3199 40.22C14.7099 39.39 14.0199 38.45 12.9999 37.66C11.9499 36.84 10.8399 36.1 9.76994 35.4C6.85994 33.52 4.15994 31.74 2.52994 28.03C1.18994 24.97 1.19994 21.67 2.32994 18.77C3.45994 15.87 5.67994 13.43 8.72994 12.08C11.7899 10.74 15.1099 10.76 17.9899 11.88C20.8699 13 23.3299 15.23 24.6799 18.28C25.8299 20.9 25.4099 25.18 24.9899 29.39C24.8799 30.46 24.7799 31.53 24.7099 32.51C24.5999 33.79 24.8299 34.93 25.0299 35.94C25.4099 38.03 25.7199 39.67 23.7399 41.12L26.1999 46.7C26.7299 46.6 27.2599 46.65 27.7299 46.83C28.3799 47.08 28.9099 47.57 29.2199 48.24L29.2599 48.28C29.5599 48.97 29.5499 49.74 29.2899 50.39C29.0299 51.04 28.5399 51.6 27.8399 51.92C27.5299 52.06 27.1999 52.11 26.8799 52.14C26.6999 52.14 26.5399 52.14 26.3699 52.12C26.2599 52.26 26.1699 52.38 26.0399 52.51C25.7999 52.73 25.5399 52.94 25.2299 53.07C24.5199 53.36 23.7699 53.36 23.1199 53.1C22.4699 52.84 21.9299 52.38 21.6299 51.69L21.5899 51.65C21.2899 50.96 21.2999 50.19 21.5599 49.54C21.7399 49.07 22.0599 48.65 22.4999 48.33L20.0399 42.75L20.0199 42.77ZM10.9199 17.05C10.6299 17.2 10.2699 17.05 10.1599 16.75C10.0099 16.46 10.1599 16.1 10.4599 15.99C12.4299 15.1 14.5999 15.12 16.4599 15.84C18.3199 16.56 19.9299 18.02 20.8099 20.01C20.9299 20.29 20.7899 20.65 20.5099 20.77C20.1999 20.91 19.8399 20.77 19.7199 20.46C18.9799 18.78 17.6199 17.55 16.0299 16.93C14.4399 16.31 12.6099 16.3 10.9199 17.04V17.05ZM16.2799 39.5C17.5199 41.17 18.4399 42.38 21.4899 41.06C24.5199 39.71 24.2499 38.21 23.8599 36.16C23.6599 35.07 23.4299 33.87 23.5299 32.41C23.6299 31.36 23.7199 30.31 23.8199 29.27C24.2299 25.22 24.6199 21.1 23.5899 18.76C22.3899 15.99 20.1699 13.99 17.5699 12.98C14.9699 11.97 11.9799 11.94 9.21994 13.17C6.44994 14.37 4.44994 16.59 3.43994 19.19C2.42994 21.79 2.39994 24.78 3.62994 27.54C5.09994 30.93 7.67994 32.61 10.4199 34.42C11.5099 35.13 12.6299 35.85 13.7399 36.72C14.8899 37.63 15.6099 38.61 16.2799 39.49V39.5Z" fill="#3D6D4A"/>
<path d="M23.06 53.24C22.34 52.96 21.81 52.46 21.51 51.78L21.46 51.72C21.16 51.04 21.15 50.23 21.42 49.52C21.6 49.05 21.91 48.64 22.32 48.31L19.94 42.91C17.54 43.35 16.53 42.01 15.25 40.33L15.22 40.29C14.62 39.47 13.94 38.54 12.93 37.76C11.85 36.91 10.7 36.15 9.70996 35.5C6.81996 33.63 4.08996 31.86 2.41996 28.08C1.10996 25.09 1.02996 21.77 2.21996 18.73C3.40996 15.69 5.69995 13.29 8.68996 11.97C11.68 10.66 15 10.59 18.04 11.77C21.08 12.95 23.48 15.25 24.8 18.24C25.97 20.9 25.54 25.23 25.12 29.41C25.02 30.46 24.91 31.54 24.84 32.53C24.73 33.8 24.96 34.93 25.16 35.93V35.98C25.55 38.06 25.85 39.71 23.9 41.18L26.28 46.58C26.79 46.5 27.31 46.55 27.78 46.73C28.46 47 29.01 47.51 29.33 48.18L29.38 48.24C29.68 48.92 29.69 49.73 29.42 50.44C29.15 51.15 28.61 51.71 27.91 52.04C27.56 52.19 27.21 52.24 26.9 52.27C26.74 52.27 26.6 52.27 26.44 52.26C26.34 52.39 26.25 52.5 26.14 52.61C25.92 52.81 25.64 53.05 25.29 53.2C24.57 53.5 23.79 53.51 23.09 53.24H23.06ZM21.68 51.61L21.72 51.67C21.99 52.29 22.49 52.76 23.15 53.01C23.81 53.26 24.51 53.25 25.16 52.98C25.47 52.84 25.73 52.63 25.94 52.44C26.05 52.33 26.14 52.22 26.26 52.07L26.3 52.01H26.37C26.55 52.03 26.7 52.04 26.86 52.03C27.14 52 27.47 51.96 27.78 51.82C28.42 51.52 28.91 51 29.16 50.36C29.41 49.72 29.4 48.99 29.14 48.37L29.1 48.31C28.81 47.69 28.3 47.21 27.67 46.97C27.21 46.79 26.71 46.75 26.21 46.85L26.11 46.87L26.07 46.78L23.57 41.11L23.65 41.05C25.56 39.66 25.27 38.06 24.9 36.03V35.98C24.69 34.97 24.46 33.82 24.57 32.51C24.64 31.52 24.75 30.44 24.85 29.39C25.27 25.24 25.7 20.94 24.55 18.34C23.26 15.41 20.91 13.17 17.93 12.01C14.95 10.85 11.7 10.92 8.76996 12.21C5.83996 13.5 3.58996 15.85 2.42996 18.83C1.26996 21.81 1.33996 25.06 2.62996 27.99C4.25996 31.71 6.96996 33.45 9.82996 35.3C10.83 35.95 11.98 36.72 13.07 37.57C14.11 38.37 14.83 39.36 15.41 40.15L15.44 40.19C16.68 41.83 17.67 43.12 19.98 42.66L20.2 42.62L20.14 42.79L22.62 48.42L22.54 48.48C22.13 48.78 21.82 49.18 21.65 49.64C21.4 50.29 21.41 51.01 21.67 51.63L21.68 51.61ZM23.49 52.14C23.09 51.98 22.76 51.68 22.57 51.28L22.55 51.24C22.36 50.85 22.35 50.39 22.52 49.95C22.68 49.53 23.01 49.19 23.41 49.01C23.63 48.91 23.74 48.63 23.64 48.41L21 42.37L21.13 42.32C21.36 42.24 21.6 42.13 21.88 42.01L22.11 41.91C22.3 41.83 22.48 41.74 22.64 41.66L22.76 41.6L22.81 41.72L25.43 47.62C25.53 47.84 25.81 47.95 26.03 47.85C26.44 47.67 26.91 47.66 27.32 47.82C27.73 47.98 28.07 48.29 28.24 48.68V48.71C28.44 49.13 28.45 49.58 28.28 50C28.11 50.42 27.79 50.76 27.39 50.94C27.24 51.02 27.05 51.07 26.8 51.08C26.6 51.11 26.39 51.06 26.2 51.01C25.96 50.94 25.73 51.04 25.63 51.26C25.53 51.45 25.43 51.63 25.26 51.77C25.13 51.91 24.97 52.01 24.77 52.1C24.35 52.28 23.9 52.29 23.48 52.13L23.49 52.14ZM21.36 42.53L23.89 48.32C24.04 48.66 23.87 49.1 23.53 49.25C23.18 49.4 22.91 49.69 22.77 50.05C22.62 50.43 22.63 50.82 22.79 51.15L22.81 51.19C22.97 51.53 23.25 51.79 23.59 51.92C23.96 52.06 24.34 52.05 24.69 51.9C24.86 51.83 24.99 51.74 25.11 51.61C25.25 51.5 25.33 51.34 25.42 51.18C25.58 50.85 25.93 50.7 26.29 50.8C26.47 50.84 26.64 50.89 26.8 50.86C27.02 50.86 27.17 50.82 27.3 50.75C27.66 50.59 27.93 50.3 28.07 49.95C28.21 49.6 28.2 49.2 28.05 48.85V48.82C27.89 48.49 27.61 48.23 27.25 48.09C26.89 47.95 26.49 47.96 26.15 48.11C25.81 48.26 25.37 48.09 25.22 47.75L22.66 41.97C22.46 42.07 22.24 42.17 22.01 42.27L21.36 42.56V42.53ZM18.28 41.58C17.41 41.24 16.83 40.46 16.18 39.58L16.12 39.5C15.48 38.66 14.76 37.7 13.66 36.83C12.6 36 11.53 35.3 10.49 34.63L10.23 34.46C7.52996 32.67 4.97996 30.98 3.50996 27.6C2.30996 24.92 2.23996 21.92 3.31996 19.16C4.39996 16.4 6.46996 14.23 9.16996 13.07C11.85 11.87 14.85 11.8 17.61 12.88C20.37 13.96 22.53 16.03 23.7 18.73C24.77 21.16 24.33 25.48 23.94 29.3L23.65 32.44C23.55 33.84 23.77 35.02 23.96 36.07L23.98 36.15C24.37 38.18 24.68 39.78 21.54 41.18C20.05 41.83 19.05 41.88 18.28 41.58ZM17.53 13.11C14.83 12.06 11.9 12.13 9.27996 13.3C6.63996 14.44 4.60996 16.56 3.55996 19.26C2.50996 21.96 2.57996 24.89 3.74996 27.51C5.18996 30.82 7.70996 32.49 10.38 34.26L10.63 34.43C11.67 35.11 12.75 35.81 13.82 36.64C14.94 37.53 15.68 38.5 16.32 39.36L16.38 39.44C17.59 41.07 18.46 42.25 21.44 40.96C24.4 39.64 24.12 38.2 23.74 36.2L23.72 36.11C23.53 35.05 23.31 33.85 23.41 32.42L23.7 29.27C24.09 25.48 24.52 21.19 23.48 18.82C22.34 16.18 20.22 14.15 17.53 13.1V13.11ZM10.44 17.19C10.26 17.12 10.12 16.98 10.05 16.8C9.96996 16.64 9.95996 16.44 10.03 16.26C10.1 16.08 10.24 15.94 10.42 15.87C12.32 15.01 14.55 14.96 16.51 15.72C18.47 16.48 20.07 18 20.93 19.96C21.08 20.3 20.91 20.74 20.57 20.89C20.38 20.97 20.18 20.97 19.99 20.89C19.81 20.82 19.68 20.68 19.62 20.51C18.92 18.92 17.63 17.69 16 17.05C14.37 16.41 12.59 16.45 10.99 17.15C10.82 17.23 10.62 17.24 10.44 17.17V17.19ZM16.42 15.96C14.52 15.22 12.36 15.27 10.51 16.1C10.39 16.15 10.3 16.23 10.26 16.35C10.22 16.47 10.22 16.59 10.27 16.7C10.32 16.82 10.41 16.91 10.52 16.96C10.63 17 10.76 17 10.87 16.94C12.53 16.21 14.38 16.17 16.07 16.83C17.76 17.49 19.1 18.77 19.83 20.43C19.87 20.55 19.96 20.63 20.07 20.68H20.08C20.2 20.73 20.33 20.73 20.45 20.68C20.67 20.58 20.78 20.3 20.68 20.08C19.84 18.18 18.32 16.72 16.4 15.97L16.42 15.96Z" fill="#3D6D4A"/>
<path d="M38.93 21.4C38.85 21.13 38.85 20.94 38.82 20.75C38.78 19.49 39.51 18.73 40.12 18.31C40.35 18.16 40.58 18.08 40.88 17.97C41.87 17.7 42.59 17.17 42.94 16.41C43.47 15.27 43.09 13.93 42.79 13.21C42.52 12.56 42.37 11.91 42.37 11.27C42.33 8.83002 44.08 7.84001 44.16 7.80001C44.35 7.69001 44.46 7.46001 44.39 7.27001C44.35 7.04001 44.16 6.89001 43.93 6.89001H36.08C36 6.89001 35.93 6.93001 35.85 6.97001C35.74 7.01001 33.53 8.27002 33.56 11.31C33.56 12.07 33.75 12.87 34.06 13.63C34.29 14.16 34.63 15.23 34.25 16.03C34.02 16.53 33.53 16.87 32.8 17.06C32.42 17.17 32.08 17.33 31.77 17.52C31.08 17.98 29.94 18.97 30.02 20.8C30.02 21.07 30.06 21.33 30.13 21.64C30.36 22.52 30.74 25.53 26.32 27.28C26.09 27.36 25.98 27.58 26.02 27.81C26.06 28.04 26.25 28.19 26.48 28.19H34.33C34.41 28.19 34.44 28.19 34.52 28.15C39.81 26.09 39.13 22.17 38.94 21.41L38.93 21.4ZM29.64 27.19H28.54C31.82 25.06 31.24 22.01 31.09 21.36C31.01 21.13 31.01 20.9 30.98 20.71C30.94 19.45 31.67 18.69 32.28 18.27C32.51 18.12 32.74 18.04 33.04 17.93C34.03 17.66 34.75 17.13 35.1 16.37C35.63 15.23 35.25 13.89 34.95 13.17C34.68 12.52 34.53 11.87 34.53 11.23C34.49 9.10001 35.86 8.07001 36.24 7.80001H37.54C36.93 8.37001 36.09 9.48001 36.13 11.23C36.13 11.95 36.32 12.68 36.59 13.36C36.97 14.43 37.66 16.75 34.95 17.51C34.65 17.59 34.34 17.74 34.07 17.89C33.42 18.31 32.47 19.19 32.55 20.75C32.55 21.02 32.59 21.25 32.66 21.47C32.85 22.23 33.35 25.24 29.65 27.18L29.64 27.19ZM34.29 27.19H31.51C35.2 25.25 34.75 22.24 34.56 21.48C34.48 21.25 34.45 20.98 34.45 20.76C34.37 19.2 35.33 18.32 35.97 17.9C36.24 17.71 36.54 17.6 36.85 17.52C39.52 16.76 38.83 14.4 38.45 13.44C38.15 12.75 37.99 12.03 37.99 11.31C37.99 9.56002 38.79 8.45001 39.4 7.88001H42.64C42.03 8.57001 41.38 9.67002 41.42 11.31C41.42 12.07 41.61 12.87 41.92 13.63C42.15 14.16 42.49 15.23 42.11 16.03C41.88 16.53 41.39 16.87 40.66 17.06C40.28 17.17 39.94 17.33 39.63 17.52C38.94 17.98 37.8 18.97 37.88 20.8C37.88 21.07 37.92 21.33 37.99 21.64C38.22 22.52 38.6 25.49 34.3 27.2L34.29 27.19Z" fill="#3D6D4A"/>
<path d="M55.99 8.67999C55.95 8.44999 55.76 8.29999 55.53 8.29999H47.65C47.57 8.29999 47.5 8.33999 47.42 8.37999C47.31 8.41999 45.1 9.67999 45.13 12.72C45.13 13.48 45.32 14.28 45.63 15.04C45.86 15.57 46.2 16.64 45.82 17.44C45.59 17.94 45.1 18.28 44.37 18.47C43.99 18.58 43.65 18.74 43.34 18.93C42.65 19.39 41.51 20.38 41.59 22.21C41.59 22.48 41.63 22.74 41.7 23.05C41.93 23.93 42.31 26.94 37.89 28.69C37.66 28.77 37.55 28.99 37.59 29.22C37.63 29.45 37.82 29.6 38.05 29.6H45.9C45.98 29.6 46.01 29.6 46.09 29.56C51.38 27.5 50.66 23.58 50.47 22.82C50.39 22.59 50.39 22.36 50.36 22.17C50.32 20.91 51.05 20.15 51.66 19.73C51.89 19.58 52.12 19.5 52.42 19.39C53.41 19.12 54.13 18.59 54.48 17.83C55.01 16.69 54.63 15.35 54.33 14.63C54.06 13.98 53.91 13.33 53.91 12.69C53.87 10.25 55.62 9.25999 55.7 9.21999C55.93 9.13999 56.04 8.90999 56.01 8.68999L55.99 8.67999ZM41.21 28.6H40.11C43.35 26.47 42.81 23.42 42.66 22.77C42.58 22.54 42.58 22.31 42.55 22.12C42.51 20.86 43.24 20.1 43.85 19.68C44.08 19.53 44.31 19.45 44.61 19.34C45.6 19.07 46.32 18.54 46.67 17.78C47.2 16.64 46.82 15.3 46.52 14.58C46.25 14.01 46.1 13.32 46.1 12.71C46.06 10.58 47.43 9.54999 47.81 9.27999H49.11C48.5 9.84999 47.66 10.96 47.7 12.71C47.7 13.43 47.89 14.16 48.16 14.84C48.58 15.83 49.26 18.15 46.56 18.92C46.26 19 45.95 19.15 45.68 19.3C45.03 19.72 44.08 20.6 44.16 22.16C44.16 22.43 44.2 22.66 44.27 22.88C44.46 23.64 44.92 26.65 41.22 28.59L41.21 28.6ZM52.98 12.72C52.98 13.48 53.17 14.28 53.48 15.04C53.71 15.57 54.05 16.64 53.67 17.44C53.44 17.94 52.95 18.28 52.22 18.47C51.84 18.58 51.5 18.74 51.19 18.93C50.5 19.39 49.36 20.38 49.44 22.21C49.44 22.48 49.48 22.74 49.55 23.05C49.78 23.93 50.16 26.9 45.82 28.65H43.04C46.73 26.71 46.28 23.7 46.09 22.94C46.01 22.71 45.98 22.44 45.98 22.22C45.9 20.66 46.86 19.78 47.5 19.36C47.77 19.17 48.07 19.06 48.38 18.98C51.05 18.22 50.36 15.86 49.98 14.9C49.68 14.21 49.52 13.49 49.52 12.77C49.52 11.02 50.32 9.90999 50.93 9.33999H54.17C53.6 9.98999 52.95 11.09 52.99 12.73L52.98 12.72Z" fill="#3D6D4A"/>
</g>
<defs>
<clipPath id="clip0_14425_1790">
<rect width="56" height="56" fill="white"/>
</clipPath>
</defs>
</svg>
