<svg width="56" height="56" viewBox="0 0 56 56" fill="none" xmlns="http://www.w3.org/2000/svg">
<g clip-path="url(#clip0_14425_1817)">
<path d="M43.8601 29.08C43.6301 29.09 43.4401 29.25 43.3901 29.47L39.1101 45.72C37.2801 47.78 32.5501 48.98 27.7901 48.96C23.0301 48.94 18.2901 47.72 16.4101 45.71L12.4801 30.72C12.4501 30.58 12.3601 30.46 12.2401 30.39C12.1201 30.32 11.9801 30.3 11.8401 30.33C11.7001 30.37 11.5901 30.45 11.5201 30.58C11.4501 30.7 11.4301 30.85 11.4701 30.98L15.4501 46.14C15.4701 46.22 15.5101 46.29 15.5701 46.36C17.8401 48.88 22.8201 49.99 27.7901 50C32.7601 50.02 37.7301 48.94 39.9601 46.35C40.0101 46.29 40.0501 46.22 40.0701 46.15L44.3901 29.74C44.4301 29.58 44.3901 29.41 44.2901 29.28C44.1901 29.15 44.0201 29.08 43.8601 29.09V29.08Z" fill="#3D6D4A"/>
<path d="M27.9 50.13H27.79C22.14 50.11 17.53 48.74 15.48 46.45C15.41 46.37 15.36 46.28 15.34 46.18L11.36 31.02C11.31 30.86 11.33 30.68 11.42 30.53C11.5 30.38 11.65 30.27 11.82 30.22C11.99 30.18 12.17 30.2 12.32 30.29C12.47 30.38 12.58 30.53 12.61 30.7L16.54 45.66C18.33 47.55 22.85 48.83 27.8 48.85H27.89C32.83 48.85 37.28 47.58 39 45.67L43.27 29.44C43.34 29.17 43.57 28.97 43.86 28.95C44.06 28.94 44.27 29.03 44.4 29.19C44.5 29.31 44.54 29.46 44.54 29.61H44.56L44.52 29.77L40.2 46.18C40.17 46.27 40.13 46.36 40.06 46.43L39.84 46.68C37.73 48.87 33.42 50.12 27.91 50.12L27.9 50.13ZM11.97 30.45C11.97 30.45 11.9 30.45 11.87 30.46C11.77 30.49 11.68 30.55 11.63 30.65C11.58 30.74 11.56 30.85 11.59 30.95L15.57 46.11C15.59 46.17 15.62 46.23 15.66 46.28C17.67 48.52 22.2 49.86 27.78 49.88H27.89C33.45 49.88 37.92 48.53 39.86 46.27L39.88 46.25C39.88 46.25 39.93 46.16 39.95 46.11L44.23 29.86L44.27 29.7C44.3 29.58 44.27 29.45 44.2 29.35C44.12 29.25 44 29.2 43.87 29.2C43.7 29.21 43.55 29.33 43.51 29.5L39.2 45.81C37.45 47.78 32.91 49.09 27.88 49.09H27.79C22.75 49.07 18.14 47.75 16.32 45.8L16.3 45.78V45.75L12.36 30.76C12.34 30.65 12.27 30.56 12.18 30.51C12.12 30.47 12.05 30.45 11.98 30.45H11.97Z" fill="#3D6D4A"/>
<path d="M25.91 12.61C25.91 12.61 25.82 12.61 25.77 12.62C22.98 13.23 20.66 14.46 19.3 16.16C17.17 16.37 15.27 17.1 13.89 18.21C12.47 19.35 11.57 20.9 11.57 22.61C11.57 23.39 11.87 24.14 12.24 24.86C11.04 25.76 10.25 26.91 10.25 28.17C10.25 29.72 11.3 31.05 12.86 31.97C14.41 32.89 16.5 33.43 18.8 33.43C20.03 33.43 21.23 33.25 22.34 32.94C23.75 33.25 25.27 33.43 26.82 33.43C29.32 33.43 31.71 33 33.64 32.22C34.74 32.6 35.92 32.82 37.13 32.83C39.48 32.83 41.61 32.12 43.18 30.94C44.75 29.76 45.77 28.09 45.77 26.22C45.77 25.01 45.47 23.8 44.72 22.77C44.01 21.8 42.87 21.01 41.32 20.46C40.52 17.05 38.32 14.92 35.99 13.72C35.87 13.65 35.72 13.63 35.59 13.67C35.46 13.71 35.34 13.8 35.28 13.93C35.22 14.06 35.2 14.2 35.25 14.33C35.3 14.46 35.39 14.57 35.52 14.63C37.72 15.76 39.73 17.67 40.4 20.92C40.44 21.1 40.57 21.25 40.75 21.31C42.31 21.81 43.29 22.53 43.89 23.36C44.49 24.19 44.74 25.15 44.74 26.2C44.74 27.69 43.94 29.06 42.57 30.09C41.2 31.12 39.28 31.77 37.14 31.77C35.98 31.77 34.83 31.57 33.79 31.19C33.67 31.15 33.53 31.15 33.41 31.2C31.63 31.94 29.27 32.37 26.83 32.37C25.31 32.37 23.82 32.2 22.47 31.89C22.38 31.87 22.29 31.87 22.21 31.9C21.16 32.21 19.99 32.37 18.81 32.37C16.67 32.37 14.75 31.85 13.4 31.05C12.05 30.25 11.3 29.22 11.3 28.15C11.3 27.2 11.9 26.24 13.11 25.43C13.34 25.28 13.41 24.96 13.27 24.72C12.85 24.03 12.63 23.31 12.63 22.58C12.63 21.24 13.33 19.98 14.57 18.99C15.8 18 17.56 17.29 19.59 17.12C19.74 17.11 19.87 17.03 19.96 16.91C21.07 15.42 23.29 14.2 26.02 13.6C26.28 13.55 26.46 13.31 26.44 13.05C26.42 12.79 26.2 12.58 25.94 12.57L25.91 12.61Z" fill="#3D6D4A"/>
<path d="M26.82 33.56C25.29 33.56 23.79 33.39 22.34 33.07C18.91 34.02 15.24 33.53 12.79 32.08C11.07 31.07 10.12 29.68 10.12 28.18C10.12 26.98 10.8 25.83 12.08 24.84C11.78 24.23 11.45 23.45 11.44 22.62C11.44 20.95 12.28 19.35 13.81 18.12C15.2 17 17.13 16.26 19.23 16.05C20.59 14.39 22.9 13.13 25.74 12.51C25.79 12.5 25.85 12.49 25.91 12.49H26.03V12.51C26.3 12.57 26.51 12.8 26.53 13.09C26.56 13.42 26.33 13.71 26.01 13.77C23.31 14.36 21.13 15.55 20.02 17.03C19.91 17.18 19.74 17.27 19.56 17.29C17.64 17.45 15.88 18.11 14.61 19.13C13.4 20.11 12.73 21.35 12.72 22.62C12.72 23.33 12.93 24.03 13.34 24.7C13.52 24.99 13.44 25.39 13.15 25.58C12.02 26.33 11.4 27.25 11.4 28.19C11.4 29.22 12.12 30.21 13.44 30.99C14.84 31.82 16.79 32.29 18.79 32.29C19.95 32.29 21.11 32.13 22.16 31.82C22.27 31.79 22.38 31.78 22.48 31.81C23.83 32.12 25.33 32.28 26.82 32.28C29.24 32.28 31.56 31.87 33.35 31.12C33.5 31.06 33.67 31.05 33.82 31.11L33.9 31.14C34.91 31.5 36.02 31.68 37.12 31.68C39.15 31.68 41.05 31.09 42.47 30.03C43.84 29 44.59 27.66 44.59 26.24C44.59 25.14 44.32 24.23 43.76 23.47C43.11 22.58 42.1 21.92 40.68 21.47C40.46 21.4 40.29 21.22 40.25 20.99C39.68 18.23 38.06 16.14 35.43 14.78C35.28 14.71 35.15 14.57 35.1 14.41C35.05 14.25 35.06 14.06 35.14 13.91C35.22 13.76 35.36 13.64 35.53 13.59C35.7 13.54 35.88 13.56 36.03 13.65C37.99 14.66 40.51 16.65 41.41 20.4C42.94 20.95 44.08 21.73 44.81 22.73C45.52 23.71 45.88 24.89 45.88 26.26C45.88 28.07 44.92 29.82 43.25 31.08C41.61 32.31 39.43 32.99 37.13 32.99H37.01C35.91 32.97 34.78 32.77 33.65 32.39C31.71 33.16 29.29 33.59 26.83 33.59L26.82 33.56ZM22.33 32.81H22.36C23.8 33.14 25.3 33.3 26.81 33.31C29.26 33.31 31.67 32.89 33.58 32.11L33.62 32.09H33.66C34.82 32.5 35.98 32.7 37.1 32.7H37.22C39.43 32.68 41.51 32.02 43.08 30.84C44.71 29.61 45.62 27.97 45.62 26.22C45.62 24.91 45.27 23.77 44.59 22.84C43.89 21.88 42.76 21.11 41.25 20.58L41.19 20.56L41.17 20.49C40.31 16.79 37.83 14.83 35.9 13.83C35.8 13.77 35.69 13.76 35.59 13.79C35.49 13.82 35.4 13.89 35.35 13.99C35.3 14.09 35.29 14.2 35.33 14.3C35.37 14.4 35.44 14.48 35.54 14.53C38.25 15.92 39.91 18.07 40.49 20.91C40.52 21.05 40.62 21.16 40.76 21.2C42.23 21.67 43.28 22.36 43.97 23.3C44.56 24.11 44.84 25.06 44.85 26.22C44.85 27.72 44.06 29.14 42.63 30.21C41.17 31.31 39.21 31.91 37.13 31.91C35.97 31.91 34.8 31.71 33.74 31.32H33.72C33.63 31.29 33.54 31.29 33.46 31.32C31.63 32.08 29.28 32.5 26.83 32.5C25.32 32.5 23.8 32.33 22.44 32.02C22.38 32.01 22.31 32.01 22.24 32.02C21.17 32.33 19.98 32.5 18.8 32.5C16.76 32.5 14.76 32.01 13.32 31.17C11.93 30.35 11.16 29.28 11.16 28.16C11.16 27.13 11.83 26.13 13.03 25.34C13.21 25.22 13.26 24.98 13.15 24.8C12.72 24.1 12.49 23.35 12.49 22.59C12.49 21.24 13.2 19.93 14.47 18.9C15.78 17.85 17.59 17.17 19.56 17.01C19.67 17.01 19.77 16.94 19.84 16.85C20.98 15.32 23.22 14.1 25.98 13.49C26.18 13.45 26.31 13.27 26.3 13.07C26.28 12.87 26.12 12.72 25.92 12.71H25.81C23 13.33 20.73 14.57 19.41 16.21L19.38 16.25H19.33C17.25 16.46 15.35 17.18 13.98 18.28C12.52 19.46 11.71 20.98 11.71 22.58C11.71 23.4 12.06 24.18 12.37 24.78L12.42 24.87L12.34 24.93C11.46 25.59 10.4 26.69 10.4 28.14C10.4 29.55 11.3 30.86 12.94 31.83C15.35 33.25 18.96 33.72 22.33 32.79H22.36L22.33 32.81Z" fill="#3D6D4A"/>
<path d="M27.77 34.33C27.63 34.33 27.5 34.39 27.41 34.49C27.31 34.59 27.26 34.72 27.26 34.86L27.23 45.47C27.23 45.61 27.28 45.74 27.38 45.84C27.48 45.94 27.61 45.99 27.75 45.99C27.89 45.99 28.02 45.93 28.12 45.84C28.22 45.74 28.27 45.61 28.27 45.47L28.3 34.85C28.3 34.71 28.25 34.58 28.15 34.48C28.05 34.38 27.92 34.33 27.78 34.33H27.77Z" fill="#3D6D4A"/>
<path d="M27.74 46.11C27.57 46.11 27.4 46.04 27.28 45.92C27.16 45.8 27.09 45.63 27.09 45.46L27.12 34.85C27.12 34.68 27.19 34.52 27.3 34.39C27.39 34.3 27.51 34.24 27.63 34.21V34.19H27.76C27.93 34.19 28.09 34.26 28.21 34.38C28.33 34.5 28.4 34.67 28.4 34.84L28.37 45.45C28.37 45.62 28.3 45.79 28.18 45.91C28.06 46.03 27.89 46.1 27.72 46.1L27.74 46.11ZM27.82 34.45H27.77C27.67 34.45 27.57 34.5 27.49 34.57C27.42 34.64 27.38 34.75 27.38 34.85L27.35 45.46C27.35 45.57 27.39 45.67 27.46 45.74C27.61 45.89 27.87 45.89 28.02 45.74C28.09 45.67 28.14 45.56 28.13 45.46L28.16 34.84C28.16 34.73 28.12 34.63 28.04 34.56C27.98 34.49 27.89 34.46 27.8 34.45H27.82Z" fill="#3D6D4A"/>
<path d="M33.0501 34.35C32.7801 34.35 32.5601 34.56 32.5401 34.82L31.4601 45.38C31.4401 45.52 31.4801 45.66 31.5601 45.77C31.6401 45.88 31.7701 45.95 31.9201 45.97C32.0601 45.98 32.2001 45.94 32.3101 45.85C32.4201 45.76 32.4801 45.63 32.4901 45.49L33.5701 34.93C33.5901 34.78 33.5401 34.63 33.4401 34.52C33.3401 34.41 33.2001 34.35 33.0501 34.35Z" fill="#3D6D4A"/>
<path d="M31.97 46.1C31.97 46.1 31.93 46.1 31.91 46.1C31.73 46.08 31.57 45.99 31.47 45.86C31.36 45.72 31.32 45.55 31.34 45.37L32.42 34.81C32.45 34.48 32.72 34.23 33.05 34.23C33.23 34.23 33.41 34.31 33.53 34.44C33.65 34.58 33.71 34.76 33.69 34.94L32.61 45.5C32.61 45.67 32.52 45.83 32.38 45.95C32.26 46.05 32.11 46.1 31.96 46.1H31.97ZM33.05 34.48C32.85 34.48 32.68 34.64 32.66 34.84L31.58 45.4C31.57 45.51 31.59 45.62 31.66 45.7C31.72 45.78 31.82 45.84 31.93 45.85C32.04 45.85 32.14 45.83 32.22 45.76C32.3 45.69 32.35 45.59 32.36 45.48L33.44 34.91C33.45 34.8 33.42 34.68 33.34 34.6C33.27 34.52 33.16 34.47 33.05 34.47V34.48Z" fill="#3D6D4A"/>
<path d="M22.45 34.35C22.3 34.35 22.17 34.42 22.07 34.53C21.97 34.64 21.93 34.79 21.94 34.93L23.02 45.49C23.03 45.63 23.1 45.75 23.21 45.84C23.32 45.93 23.45 45.97 23.59 45.95C23.73 45.94 23.85 45.87 23.94 45.76C24.03 45.65 24.07 45.52 24.05 45.38L22.97 34.82C22.95 34.55 22.72 34.34 22.44 34.35H22.45Z" fill="#3D6D4A"/>
<path d="M23.54 46.08C23.39 46.08 23.25 46.03 23.13 45.93C23 45.82 22.91 45.67 22.9 45.5L21.82 34.94C21.8 34.76 21.86 34.58 21.97 34.44C22.09 34.3 22.26 34.22 22.44 34.22H22.45C22.78 34.22 23.06 34.47 23.09 34.81L24.17 45.37C24.19 45.54 24.14 45.71 24.03 45.84C23.92 45.97 23.77 46.05 23.6 46.07C23.58 46.07 23.56 46.07 23.53 46.07L23.54 46.08ZM22.45 34.47C22.34 34.47 22.23 34.52 22.16 34.6C22.09 34.68 22.05 34.79 22.07 34.9L23.15 45.46C23.16 45.56 23.21 45.66 23.29 45.73C23.37 45.79 23.48 45.82 23.58 45.82C23.68 45.81 23.78 45.76 23.85 45.68C23.92 45.6 23.95 45.49 23.94 45.39L22.86 34.83C22.84 34.63 22.67 34.47 22.47 34.47H22.45Z" fill="#3D6D4A"/>
<path d="M38.4699 34.47C38.2399 34.49 38.0599 34.65 38.0099 34.87L35.5399 45.21C35.4999 45.35 35.5099 45.5 35.5899 45.62C35.6599 45.74 35.7799 45.83 35.9199 45.87C36.0599 45.91 36.2099 45.87 36.3299 45.8C36.4499 45.72 36.5299 45.6 36.5599 45.46L39.0299 35.12C39.0699 34.96 39.0299 34.79 38.9199 34.66C38.8099 34.53 38.6499 34.46 38.4799 34.48L38.4699 34.47Z" fill="#3D6D4A"/>
<path d="M36.03 46C36.03 46 35.93 46 35.88 45.98C35.71 45.94 35.56 45.83 35.47 45.67C35.38 45.52 35.36 45.33 35.41 45.16L37.88 34.83C37.94 34.56 38.17 34.35 38.45 34.33C38.64 34.33 38.86 34.4 38.99 34.56C39.12 34.72 39.17 34.93 39.12 35.14L36.65 45.47C36.62 45.64 36.52 45.79 36.37 45.89C36.26 45.96 36.14 45.99 36.02 45.99L36.03 46ZM38.48 34.59C38.31 34.6 38.17 34.73 38.13 34.9L35.66 45.24C35.63 45.35 35.64 45.46 35.69 45.56C35.74 45.65 35.83 45.72 35.94 45.75C36.04 45.77 36.16 45.75 36.25 45.7C36.34 45.64 36.4 45.54 36.42 45.44L38.9 35.1C38.93 34.98 38.9 34.84 38.82 34.75C38.74 34.65 38.61 34.59 38.49 34.61L38.48 34.59Z" fill="#3D6D4A"/>
<path d="M16.98 34.47C16.82 34.47 16.68 34.55 16.59 34.68C16.5 34.81 16.47 34.97 16.5 35.12L18.97 45.46C19 45.6 19.08 45.71 19.2 45.79C19.32 45.86 19.46 45.89 19.59 45.85C19.72 45.82 19.84 45.73 19.91 45.61C19.98 45.49 20 45.35 19.97 45.22L17.5 34.88C17.45 34.63 17.22 34.46 16.97 34.48L16.98 34.47Z" fill="#3D6D4A"/>
<path d="M19.48 45.98C19.36 45.98 19.24 45.95 19.14 45.88C19 45.79 18.89 45.64 18.85 45.48L16.38 35.15C16.33 34.96 16.38 34.77 16.49 34.61C16.61 34.45 16.78 34.36 16.98 34.35C17.29 34.35 17.57 34.55 17.64 34.85L20.11 45.18C20.15 45.35 20.13 45.52 20.04 45.67C19.95 45.82 19.8 45.92 19.64 45.96C19.59 45.97 19.54 45.98 19.49 45.98H19.48ZM16.98 34.6C16.86 34.6 16.75 34.66 16.68 34.76C16.61 34.86 16.59 34.98 16.62 35.09L19.09 45.43C19.11 45.53 19.18 45.62 19.27 45.68C19.36 45.73 19.47 45.75 19.57 45.73C19.67 45.71 19.76 45.64 19.82 45.55C19.87 45.46 19.89 45.35 19.86 45.25L17.39 34.91C17.35 34.72 17.17 34.6 16.99 34.6H16.98Z" fill="#3D6D4A"/>
<path fill-rule="evenodd" clip-rule="evenodd" d="M20.7001 23.25C17.5601 22.91 14.6401 24.94 13.9601 28.26L14.9701 28.47C15.5501 25.63 17.9401 23.99 20.5901 24.28L20.7001 23.25Z" fill="#3D6D4A"/>
<path d="M15.0701 28.62L13.8101 28.36L13.8401 28.24C14.5201 24.92 17.4201 22.76 20.7101 23.13H20.8301L20.6901 24.42H20.5701C17.9001 24.12 15.6401 25.8 15.0901 28.5L15.0701 28.62ZM14.1101 28.17L14.8801 28.33C15.4501 25.78 17.5001 24.13 19.9901 24.13C20.1501 24.13 20.3201 24.13 20.4801 24.15L20.5601 23.37C17.4901 23.11 14.8001 25.1 14.1101 28.17Z" fill="#3D6D4A"/>
<path fill-rule="evenodd" clip-rule="evenodd" d="M26.6 15.65C25.43 15.74 24.25 16.28 23.26 17.41L24.04 18.09C24.89 17.13 25.76 16.75 26.68 16.68C27.6 16.61 28.6 16.88 29.6 17.33L29.7 17.38H29.81C31.81 17.39 32.97 17.95 33.69 18.67C34.41 19.39 34.71 20.33 34.83 21.18L35.86 21.04C35.72 20.06 35.36 18.89 34.43 17.95C33.5 17.01 32.02 16.36 29.82 16.35C28.79 15.9 27.71 15.57 26.61 15.65H26.6Z" fill="#3D6D4A"/>
<path d="M34.72 21.32L34.7 21.2C34.56 20.18 34.19 19.36 33.6 18.76C32.77 17.93 31.53 17.51 29.81 17.51H29.65L29.55 17.45C28.48 16.96 27.51 16.74 26.69 16.81C25.7 16.88 24.89 17.32 24.13 18.18L24.05 18.27L23.08 17.42L23.16 17.33C24.11 16.25 25.3 15.62 26.59 15.52C27.55 15.45 28.55 15.66 29.84 16.22C31.88 16.24 33.45 16.79 34.51 17.85C35.3 18.64 35.79 19.71 35.97 21.01L35.99 21.13L34.72 21.31V21.32ZM29.73 17.26H29.81C31.6 17.26 32.9 17.7 33.78 18.59C34.38 19.2 34.77 20.02 34.93 21.04L35.71 20.93C35.52 19.74 35.06 18.76 34.34 18.03C33.32 17.01 31.8 16.48 29.82 16.47H29.77C28.51 15.92 27.54 15.7 26.62 15.77C25.43 15.86 24.34 16.42 23.45 17.4L24.04 17.92C24.82 17.07 25.66 16.63 26.68 16.56C27.55 16.5 28.55 16.72 29.66 17.22L29.74 17.25L29.73 17.26Z" fill="#3D6D4A"/>
<path fill-rule="evenodd" clip-rule="evenodd" d="M27.42 22.98C26.86 22.88 26.2 23.16 25.8 23.79L25.77 23.83L25.75 23.87C25.51 24.46 25.75 25.11 26.17 25.5C26.59 25.89 27.18 26.13 27.84 26.19H27.86C28.2 26.21 28.51 26.16 28.77 25.99C29.03 25.82 29.19 25.53 29.23 25.26C29.31 24.72 29.07 24.25 28.74 23.84C28.42 23.43 27.97 23.07 27.4 22.97L27.42 22.98ZM27.24 24C27.44 24.04 27.74 24.23 27.94 24.49C28.14 24.75 28.22 25.06 28.21 25.12C28.21 25.15 28.22 25.12 28.21 25.12C28.21 25.13 28.11 25.16 27.93 25.15C27.47 25.1 27.08 24.93 26.87 24.74C26.69 24.57 26.67 24.46 26.72 24.3C26.91 24.03 27.05 23.96 27.23 24H27.24Z" fill="#3D6D4A"/>
<path d="M28.0101 26.32C28.0101 26.32 27.9201 26.32 27.8701 26.32C27.1401 26.25 26.5301 26 26.1001 25.6C25.6801 25.21 25.3801 24.51 25.6501 23.83L25.7101 23.72C26.0801 23.13 26.7001 22.81 27.3101 22.84L27.4601 22.86C27.9901 22.95 28.4701 23.27 28.8701 23.77C29.2901 24.3 29.4501 24.79 29.3801 25.29C29.3301 25.62 29.1301 25.93 28.8601 26.11C28.6301 26.26 28.3501 26.33 28.0201 26.33L28.0101 26.32ZM27.2001 23.08C26.7101 23.08 26.2101 23.37 25.9101 23.85L25.8701 23.92C25.6401 24.49 25.9001 25.08 26.2601 25.41C26.6501 25.78 27.2101 26 27.8601 26.07C28.2201 26.09 28.4901 26.03 28.7101 25.89C28.9201 25.76 29.0801 25.5 29.1101 25.25C29.1701 24.82 29.0301 24.4 28.6501 23.92C28.4101 23.62 28.0101 23.23 27.4601 23.11H27.3901C27.3201 23.09 27.2501 23.08 27.1801 23.08H27.2001ZM28.2501 25.28L28.2001 25.26C28.1101 25.28 28.0001 25.28 27.9401 25.28C27.4801 25.24 27.0501 25.06 26.8001 24.83C26.6001 24.64 26.5501 24.49 26.6201 24.26L26.6401 24.22C26.8201 23.97 26.9901 23.82 27.2701 23.87L27.3701 23.9C27.6001 23.98 27.8601 24.17 28.0501 24.41C28.2401 24.65 28.3301 24.93 28.3501 25.08L28.3801 25.16L28.2501 25.29V25.28ZM26.8601 24.35C26.8301 24.45 26.8301 24.51 26.9801 24.64C27.1401 24.79 27.4901 24.97 27.9701 25.02C28.0201 25.02 28.0601 25.02 28.0901 25.02C28.0601 24.91 27.9901 24.73 27.8601 24.56C27.6601 24.31 27.3901 24.15 27.2301 24.12H27.1701C27.0901 24.12 27.0001 24.16 26.8601 24.35Z" fill="#3D6D4A"/>
<path fill-rule="evenodd" clip-rule="evenodd" d="M31.52 21.14H31.47C30.84 21.24 30.4 21.77 30.27 22.33C30.14 22.89 30.24 23.52 30.51 24.12V24.14C30.67 24.45 30.87 24.69 31.15 24.83C31.43 24.97 31.76 24.97 32.01 24.87C32.52 24.67 32.81 24.22 33 23.74C33.19 23.25 33.28 22.69 33.08 22.15C32.88 21.61 32.31 21.18 31.57 21.15H31.52V21.14ZM31.59 22.2C31.92 22.23 32.04 22.31 32.11 22.49C32.18 22.68 32.16 23.04 32.04 23.34C31.92 23.65 31.69 23.87 31.63 23.89C31.6 23.9 31.63 23.9 31.63 23.9C31.62 23.89 31.55 23.84 31.46 23.67C31.27 23.25 31.23 22.82 31.29 22.55C31.35 22.3 31.44 22.24 31.6 22.2H31.59Z" fill="#3D6D4A"/>
<path d="M31.62 25.07C31.43 25.07 31.25 25.03 31.09 24.95C30.81 24.81 30.59 24.56 30.41 24.21V24.18C30.1 23.54 30.02 22.89 30.15 22.31C30.28 21.75 30.73 21.14 31.46 21.03L31.67 20.98V21.03C32.38 21.09 32.98 21.51 33.2 22.11C33.38 22.61 33.36 23.19 33.12 23.79C32.87 24.41 32.53 24.81 32.06 24.99C31.92 25.04 31.77 25.07 31.62 25.07ZM31.5 21.27C30.89 21.36 30.51 21.88 30.4 22.36C30.28 22.88 30.36 23.48 30.63 24.07C30.79 24.4 30.98 24.6 31.21 24.72C31.44 24.84 31.73 24.85 31.97 24.75C32.37 24.59 32.67 24.24 32.89 23.69C33.04 23.31 33.17 22.75 32.97 22.19C32.78 21.67 32.22 21.3 31.57 21.27H31.5ZM31.53 24.05L31.5 23.97C31.5 23.97 31.4 23.86 31.34 23.74C31.15 23.32 31.08 22.86 31.16 22.53C31.22 22.28 31.32 22.17 31.46 22.12V22.07H31.6C31.9 22.11 32.13 22.19 32.22 22.45C32.3 22.68 32.27 23.07 32.15 23.39C32.04 23.66 31.87 23.87 31.75 23.96V24.01L31.53 24.04V24.05ZM31.61 22.34C31.51 22.37 31.45 22.39 31.4 22.59C31.35 22.8 31.36 23.2 31.56 23.63C31.58 23.67 31.6 23.71 31.63 23.74C31.71 23.67 31.84 23.51 31.92 23.3C32.04 23 32.04 22.68 31.99 22.54C31.96 22.45 31.91 22.37 31.61 22.34Z" fill="#3D6D4A"/>
<path fill-rule="evenodd" clip-rule="evenodd" d="M29.57 27.72C29.05 27.8 28.52 28 28.15 28.44C27.78 28.88 27.69 29.59 28.04 30.25L28.06 30.29L28.09 30.33C28.48 30.83 29.16 30.95 29.71 30.78C30.26 30.61 30.76 30.22 31.14 29.68V29.66C31.33 29.37 31.44 29.08 31.43 28.77C31.42 28.46 31.25 28.18 31.03 28.01C30.6 27.67 30.07 27.64 29.55 27.72H29.57ZM29.72 28.75C30.05 28.7 30.35 28.79 30.4 28.83C30.4 28.82 30.42 28.85 30.4 28.83C30.4 28.84 30.38 28.93 30.29 29.09C30.02 29.47 29.67 29.72 29.4 29.8C29.16 29.87 29.06 29.83 28.95 29.71C28.82 29.41 28.82 29.26 28.95 29.12C29.08 28.96 29.4 28.8 29.72 28.76V28.75Z" fill="#3D6D4A"/>
<path d="M29.24 30.98C28.8 30.98 28.32 30.82 28 30.41L27.93 30.31C27.58 29.65 27.64 28.87 28.06 28.36C28.39 27.97 28.87 27.71 29.47 27.61L29.56 27.59C30.23 27.49 30.74 27.59 31.13 27.91C31.39 28.11 31.56 28.44 31.58 28.76C31.6 29.07 31.5 29.38 31.28 29.72C30.86 30.32 30.34 30.72 29.77 30.9C29.61 30.95 29.43 30.98 29.25 30.98H29.24ZM29.67 27.83L29.59 27.85C29.19 27.91 28.63 28.07 28.25 28.53C27.89 28.96 27.85 29.63 28.15 30.2L28.19 30.26C28.57 30.74 29.21 30.81 29.68 30.67C30.2 30.51 30.67 30.14 31.05 29.61C31.25 29.3 31.33 29.04 31.32 28.78C31.31 28.53 31.17 28.27 30.97 28.11C30.65 27.85 30.22 27.76 29.66 27.83H29.67ZM29.22 29.96C29.08 29.96 28.98 29.91 28.87 29.79L28.85 29.76C28.73 29.48 28.68 29.25 28.86 29.04C29 28.87 29.3 28.72 29.61 28.65L29.72 28.63C30.02 28.59 30.3 28.64 30.44 28.7H30.5L30.59 28.87L30.54 28.91C30.52 28.97 30.48 29.06 30.42 29.16C30.15 29.53 29.79 29.82 29.46 29.92C29.37 29.95 29.29 29.96 29.22 29.96ZM29.07 29.64C29.14 29.71 29.19 29.74 29.38 29.68C29.59 29.62 29.92 29.4 30.2 29.02C30.23 28.98 30.25 28.94 30.26 28.91C30.17 28.88 30 28.85 29.81 28.87H29.74C29.42 28.93 29.14 29.08 29.04 29.2C28.98 29.28 28.94 29.36 29.06 29.64H29.07Z" fill="#3D6D4A"/>
<path fill-rule="evenodd" clip-rule="evenodd" d="M32.9701 25.74H32.9501C32.6201 25.81 32.3301 25.94 32.1201 26.17C31.9101 26.4 31.8301 26.72 31.8601 26.99C31.9201 27.53 32.2801 27.93 32.7001 28.24C33.1201 28.55 33.6401 28.78 34.2101 28.73C34.7801 28.68 35.3501 28.24 35.5701 27.53V27.49L35.5901 27.44C35.6601 26.81 35.2701 26.25 34.7601 25.98C34.2501 25.71 33.6201 25.64 32.9601 25.75L32.9701 25.74ZM33.1501 26.77C33.6101 26.7 34.0301 26.77 34.2801 26.9C34.5001 27.02 34.5401 27.12 34.5401 27.29C34.4201 27.6 34.3101 27.7 34.1301 27.71C33.9201 27.73 33.5901 27.62 33.3201 27.42C33.0601 27.22 32.9001 26.94 32.8901 26.88C32.8801 26.88 32.8901 26.85 32.8901 26.88C32.8901 26.87 32.9701 26.81 33.1501 26.77Z" fill="#3D6D4A"/>
<path d="M34.06 28.86C33.58 28.86 33.09 28.68 32.63 28.34C32.09 27.94 31.8 27.5 31.75 27C31.71 26.67 31.82 26.32 32.04 26.08C32.24 25.86 32.5 25.72 32.86 25.63L32.96 25.61C33.66 25.49 34.31 25.58 34.84 25.86C35.35 26.13 35.82 26.72 35.73 27.45L35.71 27.57C35.49 28.28 34.9 28.8 34.24 28.86C34.18 28.86 34.13 28.86 34.07 28.86H34.06ZM32.95 25.87C32.64 25.94 32.39 26.06 32.22 26.26C32.05 26.45 31.96 26.72 31.99 26.98C32.04 27.41 32.3 27.79 32.78 28.14C33.11 28.38 33.61 28.66 34.21 28.61C34.77 28.56 35.27 28.11 35.46 27.5V27.43C35.54 26.82 35.14 26.31 34.71 26.09C34.26 25.85 33.71 25.77 33.1 25.85V25.87H32.95ZM34.08 27.84C33.84 27.84 33.5 27.72 33.25 27.52C33.04 27.37 32.88 27.15 32.81 27H32.77V26.75L32.87 26.73C32.87 26.73 32.96 26.69 33.03 26.67L33.13 26.64C33.66 26.56 34.1 26.65 34.34 26.78C34.59 26.91 34.67 27.05 34.66 27.28V27.32C34.54 27.61 34.41 27.8 34.13 27.82C34.11 27.82 34.09 27.82 34.07 27.82L34.08 27.84ZM33.05 26.94C33.1 27.03 33.22 27.2 33.39 27.32C33.65 27.51 33.95 27.6 34.11 27.59C34.21 27.59 34.3 27.55 34.41 27.26C34.41 27.16 34.39 27.1 34.22 27.01C34.03 26.91 33.67 26.83 33.23 26.89H33.18C33.13 26.91 33.09 26.93 33.05 26.94Z" fill="#3D6D4A"/>
<path d="M29.9501 8.06004C29.2701 7.91004 28.5901 7.93004 27.9601 8.11004C26.7001 8.47004 25.6601 9.55004 25.3901 11.13C25.0101 13.31 25.9901 15.41 27.6901 16.61C28.2601 17.01 28.8501 16.16 28.2901 15.76C26.9001 14.78 26.1001 13.08 26.4101 11.3C26.6301 10.05 27.3401 9.36004 28.2501 9.10004C29.1601 8.84004 30.3001 9.04004 31.2901 9.80004C31.3801 9.87004 31.4801 9.90004 31.5901 9.91004C33.1101 9.95004 34.2901 10.11 34.9001 10.49C35.2101 10.68 35.3901 10.9 35.4901 11.24C35.6001 11.58 35.6101 12.07 35.4801 12.75V12.77C35.1701 14.67 33.6001 16.17 31.8101 16.55C31.0801 16.66 31.3201 17.76 32.0201 17.56C34.6601 16.7 36.0301 15.23 36.4901 12.96C36.4901 12.96 36.4901 12.96 36.4901 12.95C36.6501 12.16 36.6501 11.49 36.4801 10.92C36.3001 10.35 35.9301 9.90004 35.4501 9.60004C34.5101 9.01004 33.2301 8.91004 31.7001 8.87004C31.1401 8.48004 30.5601 8.18004 29.9501 8.04004V8.06004Z" fill="#3D6D4A"/>
<path d="M31.86 17.71C31.69 17.71 31.54 17.65 31.42 17.52C31.25 17.34 31.19 17.06 31.27 16.83C31.35 16.61 31.53 16.46 31.78 16.43C33.58 16.05 35.05 14.54 35.34 12.76L35.36 12.66C35.46 12.08 35.46 11.63 35.36 11.29C35.26 10.99 35.11 10.79 34.82 10.61C34.28 10.27 33.22 10.09 31.57 10.05C31.43 10.05 31.3 10 31.19 9.92001C30.28 9.23001 29.19 8.97001 28.26 9.24001C27.31 9.51001 26.7 10.24 26.51 11.34C26.22 12.99 26.94 14.69 28.34 15.67C28.68 15.91 28.68 16.3 28.5 16.57C28.32 16.83 27.95 16.97 27.6 16.73C25.8 15.46 24.88 13.26 25.25 11.13C25.52 9.58001 26.51 8.41001 27.91 8.01001C28.51 7.84001 29.16 7.81001 29.81 7.93001L29.96 7.95001C30.52 8.07001 31.09 8.34001 31.72 8.77001C33.08 8.81001 34.49 8.89001 35.49 9.52001C36.02 9.85001 36.39 10.33 36.57 10.91C36.74 11.44 36.75 12.07 36.62 12.83H36.67L36.59 13C36.11 15.34 34.66 16.84 32.03 17.7C31.96 17.72 31.89 17.73 31.83 17.73L31.86 17.71ZM35.6 12.8C35.29 14.68 33.74 16.27 31.84 16.67C31.63 16.7 31.55 16.82 31.52 16.91C31.47 17.06 31.51 17.24 31.61 17.35C31.68 17.42 31.8 17.49 31.99 17.44C34.52 16.61 35.87 15.25 36.35 13.03L36.37 12.91C36.53 12.12 36.52 11.48 36.36 10.96C36.2 10.44 35.86 10.01 35.38 9.71001C34.42 9.11001 33.04 9.03001 31.7 9.00001H31.66L31.63 8.98001C31.06 8.58001 30.54 8.33001 30.04 8.20001L29.93 8.18001C29.27 8.04001 28.6 8.05001 28 8.23001C26.7 8.60001 25.77 9.70001 25.52 11.16C25.17 13.2 26.05 15.3 27.77 16.52C27.99 16.68 28.2 16.58 28.32 16.43C28.43 16.27 28.45 16.04 28.22 15.88C26.75 14.84 25.99 13.04 26.29 11.3C26.55 9.78001 27.48 9.21001 28.22 9.00001C29.22 8.71001 30.4 8.98001 31.37 9.72001C31.44 9.77001 31.52 9.80001 31.6 9.80001C33.29 9.84001 34.39 10.04 34.98 10.4C35.32 10.61 35.51 10.86 35.63 11.22C35.75 11.62 35.75 12.15 35.63 12.8V12.82L35.6 12.8Z" fill="#3D6D4A"/>
<path fill-rule="evenodd" clip-rule="evenodd" d="M34.16 6.02997C33.65 6.08997 33.19 6.23997 32.78 6.48997C31.96 6.98997 31.42 7.85997 31.13 9.00997C31.06 9.28997 31.23 9.56997 31.51 9.63997C31.79 9.70997 32.07 9.53997 32.14 9.25997C32.39 8.27997 32.79 7.69997 33.33 7.36997C33.87 7.03997 34.62 6.92997 35.67 7.09997C35.81 7.12997 35.95 7.09997 36.07 7.01997C36.19 6.93997 36.26 6.81997 36.29 6.67997C36.31 6.53997 36.28 6.39997 36.19 6.28997C36.1 6.17997 35.98 6.09997 35.84 6.08997C35.24 5.98997 34.69 5.96997 34.18 6.02997H34.16Z" fill="#3D6D4A"/>
<path d="M31.63 9.78997C31.58 9.78997 31.53 9.78997 31.47 9.76997C31.13 9.67997 30.92 9.32997 31 8.98997C31.31 7.76997 31.89 6.89997 32.71 6.38997C33.13 6.13997 33.61 5.96997 34.14 5.90997C34.65 5.84997 35.22 5.86997 35.84 5.96997C36.01 5.98997 36.17 6.07997 36.27 6.21997C36.37 6.35997 36.42 6.53997 36.39 6.70997C36.36 6.87997 36.26 7.03997 36.12 7.13997C35.98 7.23997 35.8 7.27997 35.62 7.23997C34.65 7.07997 33.91 7.15997 33.37 7.48997C32.83 7.81997 32.47 8.39997 32.24 9.30997C32.17 9.59997 31.9 9.79997 31.62 9.79997L31.63 9.78997ZM34.76 6.11997C34.56 6.11997 34.37 6.12997 34.18 6.14997C33.68 6.20997 33.23 6.35997 32.85 6.59997C32.08 7.06997 31.55 7.88997 31.25 9.04997C31.2 9.25997 31.32 9.46997 31.54 9.52997C31.75 9.57997 31.97 9.44997 32.02 9.23997C32.27 8.25997 32.66 7.63997 33.26 7.26997C33.85 6.90997 34.65 6.80997 35.68 6.97997C35.79 6.99997 35.9 6.97997 35.99 6.91997C36.08 6.85997 36.14 6.75997 36.16 6.65997C36.18 6.54997 36.15 6.43997 36.09 6.35997C36.03 6.27997 35.93 6.21997 35.82 6.20997C35.45 6.14997 35.09 6.11997 34.77 6.11997H34.76Z" fill="#3D6D4A"/>
<path d="M29.9601 9.6C28.7401 9.51 27.5301 10.31 27.2801 11.72C27.0301 13.15 27.6801 14.53 28.8101 15.32C28.9201 15.41 29.0601 15.44 29.2001 15.42C29.3401 15.4 29.4601 15.32 29.5501 15.2C29.6301 15.08 29.6601 14.94 29.6301 14.8C29.6001 14.66 29.5201 14.54 29.4001 14.47C28.5901 13.9 28.1201 12.92 28.3001 11.9C28.4701 10.94 29.1001 10.58 29.8901 10.63C30.1801 10.65 30.4201 10.44 30.4401 10.15C30.4601 9.86 30.2501 9.62 29.9601 9.6Z" fill="#3D6D4A"/>
<path d="M29.12 15.55C28.98 15.55 28.84 15.5 28.73 15.42C27.53 14.58 26.91 13.12 27.15 11.7C27.43 10.12 28.77 9.38997 29.96 9.46997C30.13 9.47997 30.29 9.55997 30.4 9.68997C30.51 9.81997 30.57 9.98997 30.56 10.16C30.53 10.51 30.22 10.79 29.87 10.76C29.31 10.72 28.6 10.89 28.42 11.93C28.26 12.88 28.66 13.81 29.47 14.38C29.61 14.47 29.72 14.62 29.75 14.79C29.79 14.96 29.75 15.14 29.65 15.29C29.55 15.43 29.39 15.53 29.22 15.56C29.19 15.56 29.15 15.56 29.12 15.56V15.55ZM29.78 9.71997C28.75 9.71997 27.64 10.39 27.4 11.75C27.17 13.08 27.75 14.44 28.88 15.22C28.97 15.29 29.07 15.32 29.18 15.3C29.29 15.28 29.38 15.22 29.44 15.14C29.5 15.05 29.52 14.94 29.5 14.84C29.48 14.74 29.41 14.64 29.32 14.59C28.43 13.97 27.98 12.93 28.17 11.89C28.33 10.95 28.97 10.46 29.89 10.52H29.92C30.13 10.52 30.3 10.36 30.31 10.16C30.33 9.93997 30.16 9.75997 29.95 9.73997C29.89 9.73997 29.84 9.73997 29.78 9.73997V9.71997Z" fill="#3D6D4A"/>
</g>
<defs>
<clipPath id="clip0_14425_1817">
<rect width="56" height="56" fill="white"/>
</clipPath>
</defs>
</svg>
