<svg width="56" height="56" viewBox="0 0 56 56" fill="none" xmlns="http://www.w3.org/2000/svg">
<g clip-path="url(#clip0_14425_52)">
<path d="M24.41 18.07C24.41 14.57 21.32 11.84 21.22 11.74C20.76 11.33 20.09 11.33 19.68 11.74C19.53 11.84 16.49 14.57 16.49 18.07C16.49 21.57 19.58 24.3 19.68 24.4C19.89 24.61 20.19 24.71 20.45 24.71C20.71 24.71 21.02 24.61 21.22 24.4C21.32 24.3 24.41 21.57 24.41 18.07ZM18.8 18.07C18.8 16.58 19.73 15.19 20.39 14.37C21.06 15.19 21.98 16.58 21.98 18.07C21.98 19.56 21.05 20.95 20.39 21.77C19.72 20.95 18.8 19.56 18.8 18.07Z" fill="#3D6D4A"/>
<path d="M10.52 22.19C9.94998 22.24 9.48997 22.76 9.43997 23.32C9.43997 23.47 9.33997 27.59 11.91 29.96C13.76 31.71 16.44 31.92 17.83 31.92C18.34 31.92 18.7 31.87 18.7 31.87C19.27 31.82 19.73 31.3 19.78 30.74C19.78 30.59 19.88 26.47 17.31 24.1C14.74 21.73 10.67 22.14 10.52 22.2V22.19ZM13.56 28.21C12.48 27.18 12.07 25.59 11.91 24.56C12.99 24.61 14.64 24.87 15.72 25.9C16.8 26.93 17.21 28.52 17.37 29.55C16.29 29.5 14.64 29.19 13.56 28.21Z" fill="#3D6D4A"/>
<path d="M31.4 23.32C31.4 22.7 30.94 22.24 30.32 22.19C30.17 22.19 26.1 21.73 23.53 24.15C20.96 26.52 21.06 30.63 21.06 30.79C21.06 31.41 21.52 31.87 22.14 31.92C22.19 31.92 22.5 31.97 23.01 31.97C24.4 31.97 27.07 31.71 28.93 30.01C31.45 27.59 31.4 23.48 31.4 23.32ZM27.28 28.21C26.2 29.24 24.55 29.5 23.47 29.55C23.62 28.47 23.98 26.87 25.12 25.9C26.2 24.87 27.85 24.61 28.93 24.56C28.78 25.59 28.36 27.18 27.28 28.21Z" fill="#3D6D4A"/>
<path d="M52.2399 35.41C52.0299 35.1 51.6699 34.9 51.2599 34.9H46.9399L50.0799 28.11C50.3399 27.49 50.0799 26.82 49.5099 26.52C48.8899 26.26 48.2199 26.52 47.9199 27.09L44.3199 34.86H37.2699V9.43C37.2699 7.32 35.5699 5.62 33.4599 5.62H15.3999C14.0599 5.62 12.7199 6.19 11.7999 7.16L5.00995 14.16C4.07995 15.09 3.56995 16.32 3.56995 17.66V46.11C3.56995 48.42 5.46995 50.38 7.78995 50.38H44.4199C45.0899 50.38 45.5999 49.87 45.5999 49.2V47.19C45.8599 47.04 46.1099 46.93 46.3199 46.73C48.4299 45.29 49.9699 43.33 50.7399 41.07L52.3299 36.49C52.4799 36.13 52.4299 35.72 52.2299 35.41H52.2399ZM5.93995 17.66C5.93995 16.99 6.19995 16.32 6.70995 15.81L13.4999 8.76C13.9599 8.25 14.6799 7.94 15.3999 7.94H33.4599C34.2299 7.94 34.8499 8.56 34.8499 9.33V34.85H25.2299C24.8199 34.85 24.4599 35.06 24.2499 35.36C24.0399 35.67 23.9899 36.08 24.0999 36.44L25.3299 39.84H5.93995V17.66ZM30.8899 48.01H7.78995C6.75995 48.01 5.93995 47.19 5.93995 46.16V42.35H26.2099C27.0799 44.05 28.3699 45.59 30.1199 46.77C30.3299 46.92 30.5799 47.08 30.8399 47.18V48H30.8899V48.01ZM48.5399 40.29C47.9199 42.04 46.6899 43.63 44.9899 44.82C44.7299 44.97 44.4199 45.13 44.0599 45.28C43.5999 45.43 43.2399 45.9 43.2399 46.41V48H33.2599V46.41C33.2599 45.9 32.9499 45.48 32.4899 45.28C32.0799 45.13 31.7199 44.97 31.5099 44.82C29.8099 43.64 28.6299 42.09 28.0099 40.34L26.9299 37.36H49.6199L48.5399 40.29Z" fill="#3D6D4A"/>
</g>
<defs>
<clipPath id="clip0_14425_52">
<rect width="56" height="56" fill="white"/>
</clipPath>
</defs>
</svg>
