<svg width="56" height="56" viewBox="0 0 56 56" fill="none" xmlns="http://www.w3.org/2000/svg">
<g clip-path="url(#clip0_14412_1729)">
<path d="M52.2 32.16C52.14 32.16 52.09 32.16 51.98 32.22C51.92 32.22 51.87 32.28 51.81 32.28C51.75 32.28 51.7 32.34 51.64 32.34C51.53 32.4 51.36 32.51 51.19 32.62C51.02 32.73 50.91 32.84 50.74 33.01C50.68 33.07 50.63 33.18 50.52 33.23C50.46 33.34 50.41 33.4 50.3 33.51C50.24 33.62 50.19 33.73 50.13 33.79C50.07 33.9 50.02 34.01 49.96 34.13C49.85 34.35 49.79 34.58 49.74 34.86C49.74 34.97 49.68 35.08 49.68 35.25V35.86V36.2C49.68 36.42 49.62 36.59 49.62 36.76V36.87C49.62 36.91 49.6 36.9467 49.56 36.98C49.56 37.04 49.5 37.15 49.5 37.2C49.5 37.25 49.44 37.31 49.44 37.37C49.38 37.43 49.38 37.48 49.38 37.54C49.32 37.65 49.27 37.71 49.21 37.76L49.15 37.82C46.47 39.38 43.51 40.45 40.82 41.17C41.04 38.15 40.09 34.52 36.63 32.23C29.76 27.65 27.19 25.02 27.13 25.02L26.79 24.68L26.01 20.71L28.68 3.67L27.4 4.56C25.67 5.79 24.49 8.19 23.77 10.82C19.52 12.89 19.47 20.26 19.47 21.38L18.52 23.95L17.4 25.07C17.4 25.07 14.83 27.7 7.89998 32.28C3.70998 35.19 2.97998 40.49 4.43998 44.24C5.71998 47.48 8.34998 49.32 11.48 49.32C11.87 49.32 12.26 49.26 12.65 49.21C13.6 49.71 14.66 49.94 15.72 49.94C16.89 49.94 18.12 49.66 19.24 49.05C20.08 49.61 21.08 49.94 22.26 49.94C23.44 49.94 24.44 49.6 25.33 49.05C26.5 49.66 27.73 49.94 28.91 49.94C29.97 49.94 31.03 49.72 31.98 49.21C32.2 49.27 32.48 49.27 32.71 49.27C33.88 50.44 35.39 51.5 37.12 52.01C37.9 52.23 38.63 52.35 39.41 52.35C41.03 52.35 42.65 51.85 44.22 50.84C47.07 49.05 49.03 46.31 49.86 42.96C50.36 40.89 50.31 39.22 50.25 38.6L50.31 38.54C50.37 38.43 50.42 38.26 50.48 38.09C50.54 38.03 50.54 37.92 50.54 37.81C50.54 37.7 50.6 37.64 50.6 37.53C50.6 37.42 50.66 37.31 50.66 37.19V36.85C50.66 36.63 50.66 36.4 50.6 36.18C50.6 36.07 50.54 35.96 50.54 35.84V35.67C50.54 35.61 50.54 35.56 50.48 35.5C50.48 35.39 50.48 35.28 50.42 35.16V34.82C50.42 34.6 50.42 34.37 50.48 34.21C50.48 34.1 50.54 33.99 50.54 33.93C50.6 33.82 50.6 33.71 50.65 33.65C50.71 33.54 50.71 33.48 50.76 33.37C50.82 33.26 50.87 33.2 50.93 33.09C51.04 32.92 51.15 32.81 51.27 32.64C51.38 32.53 51.49 32.42 51.61 32.36C51.67 32.3 51.72 32.3 51.78 32.25C51.84 32.19 51.89 32.19 51.95 32.19C52.12 32.19 52.17 32.19 52.23 32.13L52.2 32.16ZM35.94 33.44C39.07 35.51 39.8 38.97 39.46 41.6C37.95 41.94 36.55 42.16 35.38 42.33C35.32 41.88 35.27 41.38 35.16 40.93C34.32 36.96 31.25 32.38 28.73 29.09L28.28 27.86C29.79 29.09 32.25 30.99 35.93 33.45L35.94 33.44ZM20.85 21.43C20.85 21.37 20.68 15.4 23.25 12.83C22.36 16.85 22.3 20.76 22.24 21.04L23.64 21.1C23.64 21.04 23.7 17.92 24.31 14.4C24.87 11.22 25.71 8.76 26.77 7.19L24.65 20.71L25.04 22.89L24.98 22.83L25.04 23.05L25.43 25.17C25.15 24.83 24.98 24.67 24.93 24.61L23.65 23.21L23.82 26.39C23.26 25.44 22.81 24.71 22.76 24.66L22.2 23.71L21.64 24.66C21.58 24.72 21.19 25.39 20.69 26.22L20.86 23.26L19.8 24.43L20.86 21.64V21.42L20.85 21.43ZM5.70998 43.73C4.42998 40.49 5.03998 35.85 8.66998 33.45C12.36 30.99 14.82 29.09 16.32 27.86L15.87 29.09C13.36 32.39 10.28 37.02 9.43998 40.93C8.82998 43.78 9.37998 46.24 10.89 47.91C8.59999 47.74 6.69998 46.23 5.68998 43.72L5.70998 43.73ZM12.69 47.64C10.9 46.36 10.23 44.01 10.85 41.21C11.91 36.24 16.94 29.81 19.34 26.96L19.23 28.75C19.01 29.14 18.78 29.53 18.62 29.87C16.72 33.5 14.99 42.89 17.67 47.36C17.84 47.58 17.95 47.81 18.12 48.03C16.28 48.87 14.21 48.76 12.7 47.64H12.69ZM22.24 48.59C20.73 48.59 19.61 47.98 18.83 46.69C16.43 42.72 18.1 33.84 19.84 30.54C20.45 29.37 21.57 27.47 22.24 26.29C22.91 27.46 24.08 29.36 24.64 30.54C26.32 33.84 28.05 42.66 25.65 46.69C24.87 47.98 23.75 48.59 22.24 48.59ZM30.4 46.24C30.62 46.74 31.01 47.36 31.46 47.97C30.01 48.81 28.11 48.86 26.38 48.08C26.55 47.86 26.72 47.69 26.83 47.47C29.57 43 27.78 33.61 25.88 29.98C25.71 29.7 25.54 29.37 25.38 29.03L25.27 27.02C27.67 29.87 32.7 36.24 33.76 41.27C33.87 41.72 33.93 42.11 33.93 42.55C32.42 42.72 31.47 42.72 31.47 42.72H30.91L30.3 46.02L30.41 46.24H30.4ZM43.47 49.76C41.46 50.99 39.45 51.32 37.44 50.77C34.65 49.93 32.52 47.36 31.69 45.85L32.03 44.06C34.15 43.95 41.98 43.33 48.85 39.65C48.91 41.83 48.29 46.8 43.49 49.76H43.47Z" fill="#3D6D4A"/>
</g>
<defs>
<clipPath id="clip0_14412_1729">
<rect width="56" height="56" fill="white"/>
</clipPath>
</defs>
</svg>
