<svg width="56" height="56" viewBox="0 0 56 56" fill="none" xmlns="http://www.w3.org/2000/svg">
<path d="M51.9501 24.18C50.8501 23.16 49.4101 22.66 48.2801 22.35C47.0801 22.01 45.5101 21.67 43.9801 22.13C43.4901 22.28 43.0201 22.51 42.5601 22.87C42.5301 22.89 42.4901 22.91 42.4601 22.93L33.0601 30.02C31.1301 30.48 29.5801 30.32 28.3401 29.53C26.6501 28.46 25.6801 26.28 24.9901 23.78C26.5201 25.9 28.5101 27.68 29.6401 26.93C30.8601 26.12 29.7301 23.24 28.1701 20.9C27.9701 20.6 27.7601 20.31 27.5601 20.04C27.8901 20.12 28.2401 20.21 28.5901 20.28C31.3401 20.83 34.4401 20.78 34.7301 19.34C35.0201 17.9 32.1801 16.66 29.4301 16.11C29.0801 16.04 28.7301 15.97 28.3901 15.93C28.6901 15.75 28.9901 15.57 29.2901 15.37C31.6301 13.81 33.7701 11.59 32.9701 10.36C32.0401 8.97 28.7401 10.63 26.9301 11.83C26.6401 12.03 26.3501 12.23 26.0701 12.44C26.1601 12.11 26.2401 11.76 26.3101 11.41C26.6001 9.97 26.6901 8.57 26.5901 7.48C26.4701 6.15 26.0501 5.41 25.3601 5.27C23.9501 5 22.6901 7.82 22.1301 10.57C22.0601 10.92 22.0101 11.27 21.9501 11.62C21.7701 11.32 21.5901 11.02 21.3901 10.72C20.5801 9.49 19.6601 8.44 18.8101 7.74C17.7801 6.89 16.9601 6.66 16.3801 7.04C15.1601 7.86 16.2901 10.75 17.8501 13.08C18.0501 13.38 18.2601 13.67 18.4601 13.94C18.1301 13.86 17.7801 13.77 17.4201 13.7C15.9801 13.41 14.5801 13.32 13.4901 13.41C12.1601 13.53 11.4201 13.95 11.2901 14.64C11.1501 15.33 11.6701 15.99 12.8501 16.62C13.8201 17.14 15.1401 17.58 16.5801 17.87C16.9401 17.94 17.2901 18.01 17.6301 18.05C17.3301 18.23 17.0301 18.41 16.7401 18.61C14.6401 20 13.1301 21.61 12.9101 22.71C12.8301 23.15 12.9401 23.45 13.0601 23.61C13.4401 24.19 14.2901 24.29 15.5701 23.9C16.6201 23.59 17.8701 22.96 19.0901 22.14C19.3901 21.94 19.6801 21.73 19.9601 21.53C19.8701 21.86 19.7901 22.22 19.7201 22.56C19.1701 25.31 19.2201 28.41 20.6601 28.7C20.7301 28.71 20.8001 28.72 20.8601 28.72C22.1801 28.72 23.3101 26.15 23.8501 23.58C24.6101 26.53 25.6801 29.06 27.7701 30.39C28.7201 30.99 29.8201 31.29 31.0801 31.29C31.1701 31.29 31.2801 31.27 31.3701 31.27L28.1601 33.7C27.5001 33.35 26.7701 33.12 25.9801 33.11C25.8801 33 25.7601 32.89 25.6201 32.81C24.8301 32.38 23.4501 32.58 21.9201 33.33C20.6701 33.95 19.5801 34.82 18.9801 35.64C18.0901 35.61 15.6901 35.61 13.3901 35.79C12.7801 34.03 12.1301 32.47 11.8601 31.83C12.4101 30.97 12.8101 29.62 12.9201 28.22C13.0401 26.52 12.7101 25.16 12.0301 24.59C11.9101 24.49 11.7601 24.41 11.6101 24.36C10.6201 21.99 7.90006 20.84 5.51006 21.79C3.12006 22.75 1.94006 25.46 2.87006 27.86C2.80006 28 2.75006 28.14 2.72006 28.31C2.62006 29.19 3.31006 30.41 4.58006 31.55C5.62006 32.48 6.84006 33.17 7.83006 33.42C8.03006 33.95 8.47006 35.09 9.05006 36.41C8.28006 36.69 7.49006 37.08 7.49006 37.84C7.49006 38.88 8.98006 39.3 10.5301 39.56C11.4301 41.31 12.4201 42.85 13.2501 43.25C13.4501 43.35 13.6301 43.39 13.7901 43.39C13.9401 43.39 14.0601 43.36 14.1501 43.32C14.3501 43.25 14.6101 43.06 14.7501 42.65C14.9601 42.09 14.8601 41.1 14.6101 39.95C16.4701 40.04 18.2401 40.03 18.9901 40.01C19.1001 40.18 19.2601 40.33 19.4101 40.5C18.5801 41.45 18.1301 42.58 18.1901 43.72C18.2501 44.89 18.8701 46.01 19.8801 46.8C20.6701 47.4 21.6001 47.73 22.4601 47.73C22.7401 47.73 23.0301 47.7 23.2901 47.63C24.5101 47.31 25.3901 46.61 25.8401 45.6C26.3401 44.49 26.1901 43.26 25.9901 42.56C27.5501 42.54 28.9201 41.76 29.7601 40.57C31.9301 41.42 35.0501 43.31 34.4801 47.04C34.4701 47.11 34.4701 47.18 34.4901 47.25L33.6401 48.13C32.9201 49.12 31.7601 49.72 30.5801 49.72C30.5001 49.72 30.4001 49.71 30.2801 49.7C28.8101 49.58 27.6001 48.44 27.5101 47.12C27.4701 46.41 27.8401 45.69 28.4801 45.23C29.0401 44.83 29.6601 44.74 30.2201 44.97C30.4801 45.08 30.7901 44.96 30.9001 44.69C31.0101 44.43 30.8901 44.12 30.6201 44.01C29.7401 43.64 28.7401 43.78 27.8901 44.38C26.9501 45.05 26.4201 46.12 26.4901 47.18C26.6001 49 28.2401 50.56 30.2301 50.73C30.3501 50.74 30.4701 50.75 30.5801 50.75C32.0801 50.75 33.5701 49.97 34.4401 48.79L52.6001 29.81C52.9501 29.41 53.2001 28.99 53.3301 28.54C53.8001 27.07 53.2701 25.37 51.9801 24.18H51.9501ZM22.8801 23.2C22.2601 26.31 21.1601 27.69 20.8701 27.69C20.5901 27.58 20.1201 25.88 20.7501 22.77C20.9401 21.81 21.2101 20.9 21.5301 20.12C21.6201 19.89 21.5401 19.63 21.3301 19.5C21.2501 19.44 21.1401 19.42 21.0401 19.42C20.9001 19.42 20.7701 19.47 20.6801 19.57C20.0901 20.15 19.3401 20.75 18.5201 21.3C15.8901 23.06 14.1501 23.25 13.9401 23.05C13.8301 22.77 14.6901 21.24 17.3301 19.49C18.1601 18.94 18.9901 18.48 19.7501 18.16C19.9801 18.07 20.1001 17.82 20.0601 17.58C20.0201 17.34 19.8001 17.16 19.5501 17.16C18.7301 17.16 17.8001 17.06 16.8101 16.86C13.7101 16.24 12.3301 15.16 12.3301 14.86C12.4401 14.58 14.1301 14.11 17.2401 14.74C18.2401 14.94 19.1301 15.2 19.8901 15.52C20.1201 15.61 20.3801 15.54 20.5201 15.33C20.6601 15.12 20.6301 14.85 20.4601 14.67C19.8901 14.09 19.3001 13.34 18.7301 12.51C17.0401 9.98 16.7301 8.14 16.9701 7.92C17.2601 7.8 18.7801 8.68 20.5401 11.31C21.0801 12.13 21.5401 12.96 21.8601 13.73C21.9501 13.96 22.1901 14.09 22.4401 14.04C22.6801 14 22.8601 13.78 22.8601 13.53C22.8701 12.69 22.9701 11.73 23.1601 10.79C23.7801 7.68 24.8601 6.3 25.1701 6.3C25.4501 6.41 25.9301 8.11 25.3101 11.22C25.1201 12.16 24.8501 13.07 24.5301 13.85C24.4401 14.08 24.5201 14.34 24.7201 14.47C24.9301 14.61 25.2001 14.58 25.3801 14.41C25.9801 13.83 26.7201 13.23 27.5301 12.69C30.1701 10.94 31.9201 10.73 32.1201 10.93C32.2601 11.23 31.2601 12.81 28.7301 14.51C27.8901 15.07 27.0601 15.53 26.3201 15.83C26.0901 15.92 25.9601 16.16 26.0101 16.41C26.0501 16.65 26.2701 16.83 26.5201 16.84C27.3301 16.85 28.2801 16.95 29.2501 17.15C32.3601 17.77 33.7401 18.85 33.7401 19.16C33.6301 19.44 31.9301 19.91 28.8201 19.28C27.8501 19.08 26.9401 18.82 26.1801 18.51C25.9501 18.42 25.6901 18.5 25.5501 18.71C25.4101 18.92 25.4501 19.19 25.6101 19.37C26.1701 19.93 26.7601 20.67 27.3301 21.51C29.0901 24.14 29.2901 25.89 29.0901 26.09C28.8101 26.21 27.2801 25.34 25.5201 22.71C24.9701 21.88 24.3101 21.1 24.2001 20.3C24.1101 19.68 23.1101 19.79 23.2001 20.5C23.3101 21.32 23.0901 22.28 22.9001 23.21L22.8801 23.2ZM5.87006 22.79C7.66006 22.08 9.65006 22.87 10.5101 24.55C10.0401 24.84 9.62006 25.41 9.27006 26.2C8.66006 25.41 7.97006 24.98 7.34006 25.05C6.97006 25.08 6.64006 25.27 6.40006 25.59C6.06006 26.06 5.90006 26.79 5.95006 27.67C5.09006 27.26 4.33006 27.13 3.74006 27.25C3.20006 25.45 4.09006 23.5 5.87006 22.79ZM8.50006 37.86C8.50006 37.86 8.65006 37.63 9.46006 37.4C9.61006 37.72 9.76006 38.06 9.92006 38.38C8.69006 38.11 8.52006 37.87 8.51006 37.86H8.50006ZM13.7501 42.34C12.5801 42.28 9.07006 34.21 8.71006 32.86C8.66006 32.66 8.49006 32.52 8.29006 32.49C7.45006 32.35 6.25006 31.69 5.26006 30.81C4.19006 29.85 3.68006 28.9 3.73006 28.46C3.74006 28.36 3.78006 28.34 3.82006 28.31C3.89006 28.27 4.01006 28.25 4.15006 28.25C4.63006 28.25 5.42006 28.5 6.32006 29.08C6.50006 29.19 6.73006 29.18 6.89006 29.07C7.07006 28.96 7.15006 28.74 7.11006 28.54C6.85006 27.3 7.02006 26.52 7.22006 26.23C7.29006 26.13 7.37006 26.11 7.42006 26.11C7.75006 26.09 8.39006 26.62 8.95006 27.66C9.05006 27.85 9.25006 27.95 9.47006 27.93C9.68006 27.91 9.85006 27.75 9.91006 27.55C10.2501 26.27 10.8001 25.49 11.1601 25.4C11.2101 25.39 11.2501 25.38 11.3301 25.44C11.6701 25.72 11.9501 26.76 11.8501 28.19C11.7501 29.52 11.3401 30.82 10.8301 31.5C10.7101 31.67 10.6901 31.88 10.7901 32.06C11.0801 32.57 14.6001 41.21 13.7401 42.35L13.7501 42.34ZM14.3401 38.89C14.1601 38.21 13.9401 37.51 13.7201 36.81C16.3601 36.62 18.9101 36.67 19.1701 36.71C19.3801 36.74 19.5801 36.64 19.6801 36.46C20.1201 35.72 21.1801 34.87 22.3701 34.28C23.6601 33.65 24.7301 33.53 25.1201 33.74C25.2001 33.79 25.2201 33.83 25.2201 33.88C25.2601 34.26 24.7101 35.11 23.5801 35.92C23.4101 36.04 23.3301 36.25 23.3701 36.46C23.4101 36.67 23.5801 36.82 23.7901 36.86C25.0401 37.08 25.7001 37.52 25.8901 37.83C25.9601 37.94 25.9501 38.01 25.9301 38.06C25.8401 38.37 25.1001 38.78 23.9201 38.9C23.7101 38.92 23.5401 39.08 23.4701 39.28C23.4201 39.49 23.4901 39.71 23.6601 39.83C24.7201 40.62 25.2401 41.43 25.2001 41.79C25.1901 41.83 25.1801 41.88 25.1101 41.93H25.1001C24.7001 42.15 23.6401 42.03 22.3601 41.4C21.1601 40.81 20.1001 39.96 19.6701 39.22C19.5701 39.04 19.3801 38.95 19.1701 38.97C18.9601 39 16.7501 39.04 14.3501 38.91L14.3401 38.89ZM24.8701 45.16C24.5501 45.88 23.9201 46.37 23.0101 46.6C22.2301 46.81 21.2801 46.57 20.4801 45.97C19.7101 45.38 19.2401 44.54 19.1901 43.67C19.1501 42.81 19.4801 41.94 20.1301 41.21C20.6501 41.63 21.2501 42.01 21.9001 42.33C22.9001 42.82 23.8301 43.08 24.5801 43.08C24.7401 43.08 24.8801 43.06 25.0201 43.04C25.1601 43.56 25.2101 44.42 24.8701 45.16ZM26.2301 41.48C26.1401 40.94 25.7601 40.33 25.1501 39.71C26.1101 39.43 26.7501 38.95 26.9401 38.35C27.0401 37.99 26.9901 37.62 26.7801 37.28C26.4801 36.79 25.8501 36.38 25.0101 36.1C25.7101 35.46 26.1101 34.79 26.2201 34.2C28.1001 34.36 29.5801 35.93 29.5801 37.84C29.5801 39.76 28.1001 41.32 26.2301 41.49V41.48ZM52.3101 28.23C52.2201 28.53 52.0501 28.83 51.8101 29.09C51.7901 29.11 51.7701 29.14 51.7401 29.18L35.5601 46.08C35.5301 43.3 33.6501 41.01 30.2601 39.65C30.5001 39.09 30.6201 38.48 30.6201 37.83C30.6201 36.44 30.0101 35.2 29.0501 34.34L43.0101 23.79C43.0101 23.79 43.0901 23.75 43.1201 23.72C43.4601 23.45 43.8701 23.23 44.2601 23.12C45.5401 22.75 46.9201 23.05 47.9801 23.35C49.0001 23.63 50.2901 24.08 51.2201 24.94C52.2101 25.85 52.6201 27.14 52.2901 28.24L52.3101 28.23Z" fill="#3D6D4A"/>
</svg>
