<svg width="56" height="56" viewBox="0 0 56 56" fill="none" xmlns="http://www.w3.org/2000/svg">
<g clip-path="url(#clip0_14425_1363)">
<path d="M29.1099 21.21C32.2599 15.36 26.0399 13.03 30.4399 6.75C30.4399 6.75 27.7899 7.83 26.8999 9.5C23.7199 15.35 30.2399 17.74 25.5699 23.96C25.5699 23.96 28.2199 22.88 29.1099 21.21Z" fill="#3D6D4A"/>
<path d="M22 19.73C24.35 15.36 19.71 13.62 22.99 8.92999C22.99 8.92999 21.01 9.73999 20.34 10.99C17.97 15.36 22.83 17.14 19.35 21.79C19.35 21.79 21.32 20.98 22 19.73Z" fill="#3D6D4A"/>
<path d="M35.66 19.73C38.01 15.36 33.37 13.62 36.65 8.92999C36.65 8.92999 34.67 9.73999 34 10.99C31.63 15.36 36.49 17.14 33.01 21.79C33.01 21.79 34.99 20.98 35.66 19.73Z" fill="#3D6D4A"/>
<path d="M27.5799 49.25C27.7199 49.25 27.8599 49.25 27.9999 49.25C47.3699 49.22 53.5899 47.26 53.5799 41.2C53.5799 38.32 52.2499 32.99 43.3899 29.61C42.9999 29.46 42.5699 29.54 42.2499 29.8C41.0299 30.88 39.9399 32.1 38.9999 33.43C39.1399 32.21 39.5299 31.03 40.1299 29.95C40.3099 29.64 40.3399 29.26 40.1999 28.93C40.0599 28.6 39.7699 28.35 39.4199 28.27C39.0199 28.17 38.6599 28.07 38.2999 27.98C36.6499 27.5 34.9599 27.21 33.2499 27.12C32.9199 27.1 32.6099 27.22 32.3799 27.45C31.2199 28.61 29.1299 31.87 27.7199 35C27.7899 32.73 28.2499 30.48 29.0799 28.37C29.2099 28.02 29.1599 27.63 28.9399 27.32C28.7299 27.01 28.3699 26.83 27.9999 26.84C27.7799 26.84 27.5399 26.84 27.2799 26.84C25.0799 26.77 22.8799 26.96 20.7299 27.41C20.5799 27.45 20.4299 27.52 20.3099 27.61C19.1599 28.48 17.7299 30.72 16.6099 32.96C16.6299 31.97 16.8599 30.99 17.2999 30.09C17.5199 29.69 17.4799 29.2 17.1999 28.85C16.9199 28.5 16.4599 28.34 16.0199 28.45C7.49994 30.66 2.41994 35.43 2.41994 41.21C2.35994 42.76 2.94994 44.26 4.03994 45.36C6.84994 48.16 13.4599 49.26 27.5799 49.26V49.25ZM14.5299 31.25C14.0699 33.67 14.4999 36.32 14.7299 37.78L14.7899 38.13C14.8699 38.69 15.3599 39.1 15.9299 39.09C16.4899 39.09 16.9699 38.66 17.0399 38.1C17.2899 36.24 19.9699 30.96 21.5199 29.54C23.1299 29.22 24.7799 29.07 26.4199 29.09C25.0999 33.35 25.0899 36.98 26.3999 39.91C26.6099 40.37 27.0999 40.65 27.5999 40.57C28.0999 40.5 28.4999 40.1 28.5699 39.6C28.9499 36.74 32.0599 31.32 33.6499 29.41C34.9599 29.51 36.2599 29.74 37.5299 30.11C36.2799 33.22 36.6099 36.65 36.8399 38.11C36.9299 38.67 37.4099 39.08 37.9799 39.07C38.5499 39.06 39.0199 38.64 39.0899 38.08C39.2599 36.79 41.3599 33.73 43.2299 31.96C50.2399 34.85 51.3199 38.95 51.3199 41.18C51.3199 44.81 47.5099 46.92 28.0099 46.95C14.7999 46.96 7.91994 45.97 5.65994 43.71C4.99994 43.04 4.64994 42.12 4.70994 41.17C4.70994 36.94 8.34994 33.3 14.5499 31.22L14.5299 31.25Z" fill="#3D6D4A"/>
</g>
<defs>
<clipPath id="clip0_14425_1363">
<rect width="56" height="56" fill="white"/>
</clipPath>
</defs>
</svg>
