<svg width="56" height="56" viewBox="0 0 56 56" fill="none" xmlns="http://www.w3.org/2000/svg">
<g clip-path="url(#clip0_14425_269)">
<path d="M33.26 27.11C33.04 27.49 33.17 27.98 33.55 28.2L34.24 28.6C34.37 28.67 34.5 28.71 34.64 28.71C34.92 28.71 35.18 28.57 35.33 28.31C35.55 27.93 35.42 27.44 35.04 27.22L34.35 26.82C33.97 26.6 33.48 26.73 33.26 27.11Z" fill="#3D6D4A"/>
<path d="M37.01 30.2L37.7 30.6C37.83 30.67 37.96 30.71 38.1 30.71C38.38 30.71 38.64 30.57 38.79 30.31C39.01 29.93 38.88 29.44 38.5 29.22L37.81 28.82C37.43 28.6 36.94 28.73 36.72 29.11C36.5 29.49 36.63 29.98 37.01 30.2Z" fill="#3D6D4A"/>
<path d="M41.26 30.81C40.88 30.59 40.39 30.72 40.17 31.1C39.95 31.48 40.08 31.97 40.46 32.19L41.15 32.59C41.28 32.66 41.41 32.7 41.55 32.7C41.83 32.7 42.09 32.56 42.24 32.3C42.46 31.92 42.33 31.43 41.95 31.21L41.26 30.81Z" fill="#3D6D4A"/>
<path d="M38.37 25.12C37.93 25.12 37.57 25.48 37.57 25.92C37.57 26.36 37.93 26.72 38.37 26.72H39.17C39.61 26.72 39.97 26.36 39.97 25.92C39.97 25.48 39.61 25.12 39.17 25.12H38.37Z" fill="#3D6D4A"/>
<path d="M43.16 26.71C43.6 26.71 43.96 26.35 43.96 25.91C43.96 25.47 43.6 25.11 43.16 25.11H42.36C41.92 25.11 41.56 25.47 41.56 25.91C41.56 26.35 41.92 26.71 42.36 26.71H43.16Z" fill="#3D6D4A"/>
<path d="M37.7 21.24L37.01 21.64C36.63 21.86 36.5 22.35 36.72 22.73C36.87 22.99 37.14 23.13 37.41 23.13C37.55 23.13 37.68 23.1 37.81 23.02L38.5 22.62C38.88 22.4 39.01 21.91 38.79 21.53C38.57 21.15 38.08 21.02 37.7 21.24Z" fill="#3D6D4A"/>
<path d="M41.16 19.24L40.47 19.64C40.09 19.86 39.96 20.35 40.18 20.73C40.33 20.99 40.6 21.13 40.87 21.13C41.01 21.13 41.14 21.1 41.27 21.02L41.96 20.62C42.34 20.4 42.47 19.91 42.25 19.53C42.03 19.15 41.54 19.02 41.16 19.24Z" fill="#3D6D4A"/>
<path d="M39.88 16.66L39.19 17.06C38.81 17.28 38.68 17.77 38.9 18.15C39.05 18.41 39.32 18.55 39.59 18.55C39.73 18.55 39.86 18.52 39.99 18.44L40.68 18.04C41.06 17.82 41.19 17.33 40.97 16.95C40.75 16.57 40.26 16.44 39.88 16.66Z" fill="#3D6D4A"/>
<path d="M12.27 28.6C14.74 27.98 17.4 28.48 19.48 29.93C17.87 31.25 16.83 33.25 16.83 35.49C16.83 36.74 17.26 38.19 17.62 39.19C17.77 39.61 18.23 39.82 18.64 39.67C19.06 39.52 19.27 39.06 19.12 38.65C18.67 37.41 18.43 36.29 18.43 35.5C18.43 32.42 20.94 29.91 24.02 29.91C25 29.91 25.96 30.17 26.81 30.66C27.06 30.8 27.36 30.8 27.61 30.66C28.46 30.17 29.43 29.91 30.4 29.91C33.48 29.91 35.99 32.42 35.99 35.5C35.99 38.76 32.2 45.87 29.34 45.87C28.75 45.87 28.21 45.69 27.67 45.31C27.39 45.12 27.03 45.12 26.75 45.31C26.22 45.69 25.67 45.87 25.08 45.87C23.72 45.87 21.93 44.17 20.4 41.43C20.19 41.05 19.7 40.91 19.31 41.12C18.93 41.33 18.79 41.82 19 42.21C19.24 42.64 19.59 43.22 20.02 43.84C18.44 45.15 16.48 45.87 14.43 45.87C9.58999 45.87 5.64999 41.93 5.64999 37.09C5.64999 35.46 6.09999 33.87 6.94999 32.49C7.17999 32.11 7.06999 31.62 6.68999 31.39C6.31999 31.16 5.81999 31.27 5.58999 31.65C4.57999 33.28 4.04999 35.16 4.04999 37.09C4.04999 42.81 8.69999 47.46 14.42 47.46C16.83 47.46 19.14 46.62 20.99 45.09C22.09 46.35 23.5 47.46 25.06 47.46C25.8 47.46 26.52 47.27 27.19 46.9C27.86 47.27 28.57 47.46 29.32 47.46C30.07 47.46 30.86 47.17 31.61 46.68C31.82 46.8 32.05 46.89 32.3 46.94L33.89 47.23C34.75 47.39 35.62 47.47 36.48 47.47C37.46 47.47 38.44 47.37 39.42 47.16C39.85 47.07 40.13 46.65 40.04 46.22C39.95 45.79 39.53 45.51 39.1 45.6C37.47 45.94 35.82 45.96 34.19 45.66L33.07 45.46C33.91 44.58 34.69 43.48 35.35 42.32L36.27 42.08C37.95 41.63 39.53 40.84 40.86 39.78C42.23 38.71 43.34 37.39 44.17 35.86C44.88 34.56 45.81 33.38 46.92 32.35C46.92 32.35 46.97 32.31 46.98 32.3C47.71 31.77 48.24 30.98 48.47 30.07L48.91 28.37L50.36 29.07L50.01 29.8C49.51 30.85 49.34 32.1 49.51 33.4C49.51 33.42 49.51 33.45 49.51 33.47C49.64 34.86 49.35 36.25 48.67 37.47L47.67 39.27C46.92 40.63 45.93 41.83 44.74 42.85C43.89 43.57 42.95 44.17 41.95 44.64C41.55 44.83 41.38 45.3 41.57 45.7C41.71 45.99 41.99 46.16 42.29 46.16C42.4 46.16 42.52 46.14 42.63 46.08C43.22 45.8 43.8 45.48 44.35 45.12C44.98 46.51 46.36 47.47 47.96 47.47C50.16 47.47 51.95 45.68 51.95 43.48C51.95 41.74 50.81 40.27 49.25 39.73L50.07 38.25C50.9 36.74 51.26 35.04 51.1 33.4C51.1 33.36 51.1 33.31 51.09 33.26V33.23C50.94 32.2 51.06 31.28 51.44 30.5L51.79 29.77C52.17 28.98 51.84 28.04 51.06 27.65C51.72 19.96 47.87 12.52 41.17 8.64999C40.99 8.53999 40.77 8.50999 40.56 8.56999C40.36 8.61999 40.18 8.75999 40.08 8.93999L34.86 17.97C34.64 18.35 34.77 18.84 35.15 19.06C35.53 19.28 36.02 19.15 36.24 18.77L39.45 13.22C43.48 15.84 46.04 20.21 46.32 25.05C46.34 25.47 46.7 25.8 47.12 25.8C47.14 25.8 47.15 25.8 47.17 25.8C47.61 25.77 47.95 25.4 47.92 24.96C47.6 19.59 44.75 14.73 40.25 11.84L41.05 10.45C46.63 14.01 49.86 20.32 49.5 26.92C49.08 26.74 48.61 26.75 48.19 26.95C47.76 27.16 47.45 27.54 47.34 27.99L46.9 29.7C46.76 30.25 46.45 30.72 46.05 31.01C45.96 31.07 45.87 31.15 45.82 31.2C44.58 32.34 43.54 33.66 42.75 35.12C42.02 36.46 41.05 37.61 39.85 38.55C38.82 39.37 37.6 40 36.31 40.41C36.99 38.87 37.43 37.34 37.55 36.13L37.92 36.5C38.08 36.65 38.28 36.73 38.48 36.73C38.68 36.73 38.89 36.65 39.05 36.49C39.36 36.18 39.36 35.67 39.05 35.36L38.48 34.8C38.22 34.54 37.83 34.51 37.53 34.68C37.12 31.22 34.25 28.52 30.72 28.36L34.65 21.56C34.87 21.18 34.74 20.69 34.36 20.47C33.98 20.25 33.49 20.38 33.27 20.76L31.2 24.35C31.2 24.25 31.18 24.15 31.15 24.06C30.99 23.65 30.52 23.45 30.11 23.61L29.18 23.98C28.14 24.4 27.33 25.17 26.84 26.11C26.19 25.05 25.18 24.29 23.97 23.98L22.42 23.58C21.99 23.47 21.56 23.73 21.45 24.15C21.13 25.39 21.31 26.68 21.96 27.78C22.12 28.05 22.3 28.28 22.5 28.51C21.95 28.63 21.43 28.81 20.94 29.05C19.1 27.56 16.82 26.74 14.45 26.74C13.82 26.74 13.19 26.8 12.57 26.92L12.84 25.28C12.91 24.85 12.62 24.43 12.18 24.36C11.74 24.28 11.33 24.58 11.26 25.02L10.98 26.67C9.95999 25.27 8.31999 24.35 6.45999 24.35H4.85999C4.41999 24.35 4.05999 24.71 4.05999 25.15C4.05999 28.23 6.56999 30.74 9.64999 30.74H11.25C11.65 30.74 11.96 30.45 12.02 30.07L12.27 28.63V28.6ZM9.64999 29.11C7.71999 29.11 6.10999 27.74 5.73999 25.92H6.45999C8.38999 25.92 9.99999 27.29 10.37 29.11H9.64999ZM29.76 25.44L30.7 25.07C30.7 25.07 30.77 25.02 30.81 25L28.78 28.51C28.5 28.58 28.23 28.66 27.96 28.76C27.7 27.38 28.45 25.98 29.77 25.45L29.76 25.44ZM23.56 25.5C25 25.87 25.95 27.17 25.95 28.59L25.27 28.42C23.83 28.05 22.88 26.75 22.88 25.33L23.56 25.5ZM47.96 45.87C46.89 45.87 45.97 45.15 45.68 44.15C45.71 44.12 45.75 44.1 45.78 44.07C46.79 43.21 47.67 42.22 48.41 41.13C49.52 41.34 50.36 42.31 50.36 43.47C50.36 44.79 49.29 45.86 47.97 45.86L47.96 45.87Z" fill="#3D6D4A"/>
<path d="M46.77 38.33L47.77 36.53C47.98 36.14 47.84 35.66 47.46 35.45C47.08 35.24 46.59 35.38 46.38 35.76L45.38 37.56C44.15 39.79 42.14 41.49 39.73 42.33C38.65 42.71 37.53 42.91 36.38 42.92C35.94 42.92 35.59 43.29 35.59 43.73C35.59 44.17 35.95 44.52 36.39 44.52C37.71 44.51 39.01 44.28 40.25 43.84C43.03 42.86 45.34 40.91 46.76 38.33H46.77Z" fill="#3D6D4A"/>
<path d="M11.24 42.68C11.24 43.12 10.88 43.48 10.44 43.48C10 43.48 9.64001 43.12 9.64001 42.68C9.64001 42.24 10 41.88 10.44 41.88C10.88 41.88 11.24 42.24 11.24 42.68Z" fill="#3D6D4A"/>
<path d="M14.43 42.68C14.43 43.12 14.07 43.48 13.63 43.48C13.19 43.48 12.83 43.12 12.83 42.68C12.83 42.24 13.19 41.88 13.63 41.88C14.07 41.88 14.43 42.24 14.43 42.68Z" fill="#3D6D4A"/>
<path d="M11.24 39.49C11.24 39.93 10.88 40.29 10.44 40.29C10 40.29 9.64001 39.93 9.64001 39.49C9.64001 39.05 10 38.69 10.44 38.69C10.88 38.69 11.24 39.05 11.24 39.49Z" fill="#3D6D4A"/>
<path d="M32.79 35.5C32.79 35.94 33.15 36.3 33.59 36.3C34.03 36.3 34.39 35.94 34.39 35.5C34.39 33.3 32.6 31.51 30.4 31.51C29.96 31.51 29.6 31.87 29.6 32.31C29.6 32.75 29.96 33.11 30.4 33.11C31.72 33.11 32.79 34.18 32.79 35.5Z" fill="#3D6D4A"/>
</g>
<defs>
<clipPath id="clip0_14425_269">
<rect width="56" height="56" fill="white"/>
</clipPath>
</defs>
</svg>
